<?xml version="1.0" encoding="UTF-8"?>
<svg id="Ebene_1" data-name="Ebene 1" xmlns="http://www.w3.org/2000/svg" viewBox="0 0 141.73 141.73">
  <defs>
    <style>
      .cls-1 {
        fill: #c8c8c8;
        stroke-width: 0px;
      }
    </style>
  </defs>
  <path class="cls-1" d="M68.87,100.56c-.91.17-1.52,1.05-1.35,1.96l1.54,8.22c.15.81.86,1.37,1.65,1.37.1,0,.21,0,.31-.03.91-.17,1.52-1.05,1.35-1.96l-1.54-8.22c-.17-.91-1.05-1.52-1.97-1.35Z"/>
  <path class="cls-1" d="M84.07,92.38c-.63.69-.58,1.75.11,2.38l6.24,5.68c.32.29.73.44,1.13.44.46,0,.91-.19,1.25-.55.63-.69.58-1.75-.11-2.38l-6.24-5.68c-.69-.63-1.75-.58-2.38.11Z"/>
  <path class="cls-1" d="M49.49,99.23l-3.76,7.57c-.41.83-.08,1.84.76,2.26.24.12.5.18.75.18.62,0,1.21-.34,1.51-.93l3.76-7.57c.41-.83.08-1.84-.76-2.26-.83-.42-1.84-.08-2.26.76Z"/>
  <path class="cls-1" d="M125.26,62.18c-.42-.61-1.19-.87-1.9-.64-7.5,2.41-15.56-.33-20.06-6.8-4.5-6.48-4.25-14.99.63-21.18.46-.58.48-1.39.06-2-.42-.61-1.2-.87-1.9-.64-2,.64-3.89,1.57-5.62,2.78-4.65,3.23-7.76,8.07-8.76,13.64-1,5.57.22,11.19,3.45,15.84,3.23,4.65,8.07,7.76,13.64,8.76,1.27.23,2.54.34,3.8.34,4.28,0,8.45-1.3,12.04-3.79,1.73-1.2,3.27-2.64,4.56-4.29.46-.58.48-1.39.06-2ZM105.4,68.6c-4.68-.84-8.75-3.46-11.47-7.37s-3.74-8.64-2.9-13.32c.84-4.65,3.43-8.71,7.3-11.42-2.71,6.53-2,14.09,2.21,20.15,4.21,6.06,11.04,9.35,18.11,9.1-3.89,2.68-8.59,3.69-13.25,2.85Z"/>
  <path class="cls-1" d="M110.53,80.82c-.92-.16-1.79.46-1.95,1.37-.44,2.53-1.09,4.98-1.93,7.35-.22.62-.45,1.23-.69,1.84-.02.05-.04.1-.06.16-.26.63-.53,1.25-.81,1.87-.03.07-.06.13-.09.2-.27.58-.55,1.15-.85,1.72-.07.13-.14.25-.2.38-.26.49-.53.97-.8,1.44-.13.22-.26.44-.39.65-.22.37-.45.73-.68,1.09-.21.33-.43.65-.65.97-.16.24-.33.48-.49.71-.31.43-.63.86-.95,1.28-.09.11-.17.23-.26.34-.42.53-.84,1.05-1.28,1.56,0,0-.01.01-.02.02-2.38,2.76-5.12,5.25-8.18,7.41-.52.36-1.04.71-1.57,1.05-.16.1-.32.21-.48.31-.34.21-.68.41-1.02.61-.38.23-.77.45-1.16.67-.12.07-.25.13-.38.2-.58.31-1.17.62-1.76.9-4.03,1.94-8.25,3.26-12.54,3.94-.07.01-.15.02-.22.03-.6.09-1.2.17-1.8.24-.22.02-.44.04-.65.06-.46.04-.91.08-1.37.11-.36.02-.73.04-1.09.05-.32.01-.63.02-.95.03-.49,0-.98,0-1.48,0-.2,0-.4,0-.6-.01-.59-.02-1.18-.05-1.77-.09-.12,0-.24-.01-.36-.02-.64-.05-1.28-.11-1.91-.19-.09-.01-.18-.02-.27-.03-.63-.08-1.25-.17-1.88-.28-.12-.02-.25-.04-.37-.06-.57-.1-1.14-.22-1.7-.34-.21-.05-.43-.09-.64-.14-.44-.1-.87-.21-1.3-.33-.34-.09-.67-.17-1.01-.27-.3-.09-.6-.18-.89-.27-.44-.14-.88-.27-1.31-.42-.21-.07-.42-.15-.64-.23-.51-.18-1.01-.37-1.51-.57-.22-.09-.44-.19-.66-.28-.46-.19-.92-.39-1.37-.6-.28-.13-.55-.26-.82-.4-.38-.18-.75-.37-1.12-.56-.35-.18-.69-.37-1.03-.56-.28-.15-.56-.31-.83-.47-.42-.24-.83-.5-1.24-.75-.19-.12-.37-.23-.56-.35-.48-.31-.94-.63-1.41-.95-.11-.08-.22-.15-.33-.23-.52-.37-1.02-.75-1.52-1.14-.05-.04-.11-.08-.16-.13-.53-.42-1.06-.86-1.57-1.3-.02-.02-.04-.04-.07-.06-.53-.46-1.05-.93-1.55-1.42-.01-.01-.02-.02-.03-.03-.5-.48-.99-.98-1.47-1.49-.02-.02-.04-.04-.06-.06-.46-.49-.91-.99-1.35-1.5-.04-.05-.08-.1-.13-.15-.41-.47-.8-.96-1.18-1.45-.08-.1-.15-.19-.22-.29-.34-.44-.67-.89-1-1.34-.11-.16-.23-.32-.34-.48-.27-.39-.54-.79-.8-1.19-.15-.24-.31-.47-.46-.71-.2-.33-.4-.66-.6-.99-.19-.32-.38-.64-.56-.97-.14-.26-.28-.52-.42-.78-.22-.41-.43-.82-.63-1.23-.09-.19-.18-.38-.27-.57-.23-.49-.46-.98-.67-1.48-.05-.13-.11-.25-.16-.38-.24-.56-.46-1.13-.67-1.7-.03-.07-.05-.15-.08-.22-.23-.62-.44-1.24-.64-1.87-.01-.04-.02-.08-.04-.12-.21-.65-.4-1.31-.57-1.97,0-.03-.01-.06-.02-.08-.17-.66-.33-1.33-.48-2.01,0-.04-.02-.08-.03-.13-.14-.65-.26-1.3-.37-1.96-.01-.08-.03-.16-.04-.25-.1-.61-.18-1.23-.26-1.84-.02-.15-.03-.3-.05-.44-.06-.55-.11-1.1-.15-1.65-.02-.23-.03-.47-.04-.7-.03-.47-.05-.94-.06-1.41,0-.33,0-.67,0-1,0-.38,0-.75.01-1.13.01-.43.03-.87.06-1.3.02-.29.03-.57.05-.86.04-.51.09-1.03.15-1.54.02-.22.04-.44.07-.66.07-.55.15-1.1.24-1.65.03-.21.06-.41.1-.62.09-.51.19-1.01.3-1.51.06-.27.11-.53.17-.8.09-.39.19-.78.29-1.17.1-.37.19-.75.3-1.12.08-.28.17-.55.25-.82.15-.47.29-.95.46-1.42.07-.21.15-.42.23-.63.18-.51.37-1.02.57-1.52.09-.22.18-.43.27-.64.2-.47.4-.94.61-1.4.12-.27.25-.53.38-.79.19-.39.38-.78.58-1.16.17-.33.35-.66.54-.99.16-.3.33-.59.5-.88.23-.4.47-.79.72-1.18.13-.21.26-.42.39-.62.29-.45.6-.9.91-1.34.09-.13.19-.27.28-.4.35-.49.71-.97,1.08-1.44.07-.08.13-.17.2-.25.4-.5.81-.99,1.22-1.47.05-.06.1-.11.15-.17.43-.49.87-.97,1.32-1.44.05-.05.09-.1.14-.15.44-.46.9-.91,1.36-1.35.06-.06.13-.12.19-.18.44-.42.89-.82,1.35-1.22.1-.09.2-.17.3-.26.42-.36.85-.71,1.28-1.05.16-.12.31-.25.47-.37.38-.29.76-.57,1.15-.85.23-.16.46-.33.69-.49.32-.22.64-.44.97-.65.31-.2.63-.41.94-.6.25-.15.5-.3.75-.45.41-.24.81-.48,1.22-.7.17-.09.34-.19.52-.28.5-.27,1-.52,1.51-.77.1-.05.19-.09.29-.14.58-.28,1.17-.55,1.77-.8l.08-.03c3.94-1.67,8.12-2.78,12.41-3.28.05,0,.09,0,.14-.01.65-.07,1.29-.13,1.94-.17.14,0,.28-.02.42-.02.56-.03,1.11-.06,1.67-.07.25,0,.5,0,.75,0,.45,0,.91,0,1.36.01.37.01.73.03,1.1.05.35.02.7.04,1.05.06.46.04.93.08,1.39.13.27.03.53.05.8.09.52.07,1.04.15,1.56.23,1.78.29,3.56.67,5.33,1.19l-8.07,2.52c-.89.28-1.38,1.22-1.11,2.11.22.72.89,1.18,1.61,1.18.17,0,.33-.02.5-.08l12.45-3.88c.5-.16.9-.54,1.08-1.03.18-.49.12-1.04-.16-1.48l-7.09-11.09c-.5-.79-1.54-1.01-2.33-.51-.78.5-1.01,1.54-.51,2.33l4.23,6.62c-1.6-.45-3.2-.81-4.8-1.09-.02,0-.04-.01-.06-.02-.18-.03-.36-.05-.55-.08-.57-.09-1.13-.18-1.7-.25-.26-.03-.51-.06-.77-.08-.54-.06-1.07-.11-1.61-.15-.32-.02-.64-.04-.96-.06-.46-.02-.91-.05-1.37-.06-.41-.01-.82-.01-1.23-.01-.35,0-.71,0-1.06,0-.51.01-1.02.03-1.53.06-.25.01-.49.02-.74.04-.6.04-1.2.1-1.8.16-.15.02-.3.03-.45.05-.67.08-1.34.17-2.01.28-.08.01-.16.02-.24.04-.72.12-1.43.25-2.14.4-.03,0-.07.01-.1.02-.74.16-1.47.33-2.19.52-.02,0-.03,0-.05.01-.73.19-1.45.4-2.17.63-.02,0-.05.02-.07.02-.69.22-1.38.46-2.06.71-.06.02-.12.04-.17.06-.64.24-1.27.49-1.89.75-.11.05-.22.09-.33.14-.56.24-1.12.49-1.67.76-.18.08-.36.17-.54.26-.47.23-.94.47-1.41.72-.25.13-.51.27-.76.41-.38.21-.76.43-1.13.65-.33.19-.65.39-.98.59-.29.18-.58.36-.86.55-.4.26-.79.52-1.18.79-.21.14-.41.29-.61.43-.45.33-.9.66-1.35,1-.14.1-.27.21-.4.32-.49.39-.98.79-1.46,1.2-.08.07-.17.14-.25.22-.52.45-1.02.9-1.52,1.37-.05.05-.1.1-.15.14-.51.49-1.02.99-1.51,1.5-.04.04-.08.08-.11.12-.49.52-.98,1.04-1.45,1.58-.05.05-.09.11-.14.16-.45.52-.9,1.05-1.33,1.6-.07.09-.14.18-.21.26-.4.51-.79,1.02-1.17,1.55-.1.14-.2.29-.31.44-.33.47-.66.95-.97,1.43-.15.22-.29.45-.43.68-.26.41-.52.83-.77,1.26-.19.32-.37.65-.55.97-.19.34-.38.69-.56,1.04-.22.42-.43.84-.63,1.27-.13.27-.27.55-.4.82-.23.5-.45,1.02-.67,1.53-.09.22-.19.44-.28.66-.22.55-.43,1.1-.63,1.66-.06.16-.12.31-.18.47-.02.06-.03.11-.05.17-.18.51-.34,1.03-.5,1.55-.09.29-.18.58-.27.87-.11.4-.22.81-.32,1.21-.11.42-.22.84-.32,1.25-.06.28-.12.57-.18.85-.12.54-.23,1.08-.32,1.63,0,.06-.02.11-.03.17-.03.16-.04.32-.07.48-.1.59-.19,1.19-.26,1.78-.03.23-.05.47-.08.7-.06.56-.12,1.11-.16,1.67-.02.31-.04.61-.05.91-.03.47-.05.94-.06,1.41-.01.4-.01.8-.01,1.2,0,.36,0,.73,0,1.09.01.5.03,1,.06,1.5.01.26.03.51.04.77.04.59.1,1.18.16,1.77.02.16.03.33.05.49.08.66.17,1.32.27,1.97.01.09.03.19.04.28.12.7.25,1.4.4,2.1.01.05.02.09.03.14.15.72.33,1.44.51,2.15,0,.03.02.07.03.1.19.71.39,1.41.61,2.11.01.04.03.09.04.13.21.67.44,1.34.69,2,.03.08.06.16.09.24.23.61.47,1.22.72,1.82.06.14.11.27.17.41.23.54.47,1.07.72,1.59.1.21.2.41.3.62.22.45.45.89.68,1.32.15.28.3.56.46.84.2.35.4.7.6,1.04.21.36.42.71.64,1.07.16.26.33.52.49.77.28.43.56.85.85,1.27.12.18.25.35.37.53.35.48.7.96,1.06,1.43.08.11.17.21.25.32.41.52.83,1.04,1.27,1.55.05.05.09.11.14.16.47.54.95,1.08,1.44,1.6.02.02.05.05.07.07.51.54,1.04,1.07,1.58,1.59.02.01.03.03.05.04.54.52,1.09,1.02,1.65,1.51.03.03.06.05.09.08.54.47,1.1.93,1.67,1.38.07.05.13.1.2.15.53.41,1.06.82,1.61,1.21.12.09.25.18.38.27.49.34.98.68,1.49,1.01.21.14.42.27.63.4.43.27.86.54,1.3.79.31.18.62.35.94.53.35.2.71.39,1.07.58.41.22.84.42,1.26.63.28.13.55.27.83.4.51.23,1.02.46,1.54.67.21.09.43.18.64.27.56.23,1.13.44,1.7.64.15.05.29.12.44.17.06.02.12.04.18.06.37.13.75.25,1.12.37.37.12.75.24,1.12.35.3.09.59.17.89.25.54.15,1.08.28,1.62.41.16.04.31.08.47.11,3.47.78,6.98,1.17,10.48,1.17.19,0,.38-.01.57-.02.59,0,1.17-.02,1.76-.05.25-.01.49-.03.74-.04.76-.05,1.52-.11,2.28-.19,0,0,0,0,.01,0,6.87-.76,13.51-3.02,19.54-6.66.3-.18.6-.37.9-.56.22-.14.45-.28.67-.43,3.8-2.48,7.19-5.46,10.11-8.85.02-.02.03-.04.05-.06.46-.54.91-1.08,1.35-1.64.11-.13.21-.27.31-.41.34-.44.67-.89,1-1.34.19-.27.37-.54.56-.81.23-.33.45-.66.67-1,.26-.4.51-.81.76-1.22.13-.22.27-.44.4-.66.31-.52.6-1.05.88-1.59.07-.12.13-.25.2-.37.32-.62.63-1.25.93-1.89.03-.06.06-.12.08-.17.31-.67.61-1.36.89-2.04.02-.04.04-.09.05-.13.27-.66.52-1.34.76-2.01.02-.06.05-.12.07-.19,0-.01,0-.02,0-.03.86-2.47,1.53-5.03,1.98-7.66.16-.92-.46-1.79-1.37-1.95Z"/>
  <path class="cls-1" d="M76.34,54.84c-5.18-3.24-11.36-4.3-17.41-3-6.05,1.3-11.24,4.82-14.63,9.91-3.39,5.1-4.56,11.16-3.29,17.07,1.27,5.91,4.84,10.95,10.03,14.2,3.74,2.34,8,3.54,12.35,3.54,1.68,0,3.37-.18,5.06-.54,6.05-1.3,11.24-4.82,14.63-9.91,3.39-5.1,4.56-11.16,3.29-17.07-1.27-5.91-4.84-10.95-10.03-14.2ZM80.28,84.25c-2.9,4.35-7.35,7.36-12.53,8.48-5.19,1.12-10.48.21-14.91-2.57-4.42-2.76-7.44-7.04-8.52-12.06-1.08-5.01-.09-10.16,2.8-14.5,2.9-4.35,7.35-7.36,12.53-8.48,1.45-.31,2.9-.46,4.34-.46,3.73,0,7.38,1.03,10.57,3.03,4.42,2.76,7.44,7.04,8.52,12.06,1.08,5.01.09,10.16-2.8,14.5Z"/>
  <path class="cls-1" d="M57.86,47.69c.12,0,.24-.01.36-.04.91-.2,1.49-1.09,1.29-2l-1.76-8.17c-.2-.91-1.09-1.48-2-1.29-.91.2-1.49,1.09-1.29,2l1.76,8.17c.17.79.87,1.33,1.64,1.33Z"/>
  <path class="cls-1" d="M75.43,49.75c.62,0,1.21-.34,1.51-.93l3.76-7.57c.41-.83.08-1.84-.76-2.26-.83-.42-1.84-.08-2.26.76l-3.76,7.57c-.41.83-.08,1.84.76,2.26.24.12.5.18.75.18Z"/>
  <path class="cls-1" d="M30.22,93.33c.26,0,.53-.06.78-.19l7.6-3.98c.82-.43,1.14-1.45.71-2.27-.43-.82-1.45-1.14-2.27-.71l-7.6,3.98c-.82.43-1.14,1.45-.71,2.27.3.57.89.9,1.49.9Z"/>
  <path class="cls-1" d="M34.78,71.75c.83,0,1.55-.61,1.67-1.46.13-.92-.52-1.77-1.44-1.9l-8.49-1.16c-.92-.14-1.77.52-1.9,1.44s.52,1.77,1.44,1.9l8.49,1.16c.08.01.15.02.23.02Z"/>
  <path class="cls-1" d="M43.04,55.68c.44,0,.88-.17,1.21-.52.64-.67.62-1.74-.05-2.38l-6.08-5.84c-.67-.64-1.74-.62-2.38.05s-.62,1.74.05,2.38l6.08,5.84c.33.31.75.47,1.17.47Z"/>
  <path class="cls-1" d="M101.41,81.06c.08.01.15.02.23.02.83,0,1.55-.61,1.67-1.46.13-.92-.52-1.77-1.44-1.9l-8.49-1.16c-.92-.13-1.77.52-1.9,1.44-.13.92.52,1.77,1.44,1.9l8.49,1.16Z"/>
</svg>