<?xml version="1.0" encoding="UTF-8"?>
<svg id="Ebene_1" data-name="Ebene 1" xmlns="http://www.w3.org/2000/svg" viewBox="0 0 141.73 141.73">
  <defs>
    <style>
      .cls-1 {
        fill: #c8c8c8;
        stroke-width: 0px;
      }
    </style>
  </defs>
  <path class="cls-1" d="M131.81,32.49h-40.56v-5.13c0-4.37-3.3-7.93-7.35-7.93h-26.08c-4.05,0-7.35,3.56-7.35,7.93v5.13H9.92c-3.81,0-6.91,3.1-6.91,6.9v76.01c0,3.81,3.1,6.9,6.91,6.9h121.89c3.81,0,6.9-3.1,6.9-6.9V39.39c0-3.81-3.1-6.9-6.9-6.9ZM18.37,118.93h-8.45c-1.95,0-3.54-1.59-3.54-3.54V39.39c0-1.95,1.59-3.54,3.54-3.54h8.45v83.08ZM53.85,27.36c0-2.52,1.79-4.56,3.98-4.56h26.08c2.19,0,3.98,2.05,3.98,4.56v5.13h-34.04v-5.13ZM117.67,118.93H21.74V35.86h95.94v83.08ZM135.35,115.4c0,1.95-1.59,3.54-3.54,3.54h-10.77V35.86h10.77c1.95,0,3.54,1.59,3.54,3.54v76.01Z"/>
  <path class="cls-1" d="M43.56,87.2h17.35v17.35c0,.93.75,1.68,1.68,1.68h16.25c.93,0,1.68-.75,1.68-1.68v-17.35h17.35c.93,0,1.68-.75,1.68-1.68v-16.25c0-.93-.75-1.68-1.68-1.68h-17.35v-17.35c0-.93-.75-1.68-1.68-1.68h-16.25c-.93,0-1.68.75-1.68,1.68v17.35h-17.35c-.93,0-1.68.75-1.68,1.68v16.25c0,.93.75,1.68,1.68,1.68ZM45.24,70.96h17.35c.93,0,1.68-.75,1.68-1.68v-17.35h12.88v17.35c0,.93.75,1.68,1.68,1.68h17.35v12.88h-17.35c-.93,0-1.68.75-1.68,1.68v17.35h-12.88v-17.35c0-.93-.75-1.68-1.68-1.68h-17.35v-12.88Z"/>
</svg>