<?xml version="1.0" encoding="UTF-8"?>
<svg id="Ebene_1" data-name="Ebene 1" xmlns="http://www.w3.org/2000/svg" viewBox="0 0 141.73 141.73">
  <defs>
    <style>
      .cls-1 {
        fill: #bcbcbc;
        stroke-width: 0px;
      }
    </style>
  </defs>
  <path class="cls-1" d="M135.25,79.63c-3.74-3.75-10.61-5.52-20.44-5.24-.71.02-1.32.05-1.81.08-7.07-21.29-31.58-39.69-53.23-39.69-20.03,0-28.58,4.85-28.58,16.23,0,7.98,4.72,15.52,7.54,20.02.42.68.8,1.28,1.1,1.79,1.8,3.05,2.45,5.33,1.88,6.58-.44.97-1.84,1.69-4.15,2.13-3.95.75-11.41.81-11.48.81-.29,0-.57.09-.82.23-2.9-1.92-7.74-4.82-10.25-4.71-4.87.23-11.35,21.48-11.54,22.58-.72,4.12,1.15,5.6,2.34,6.12.6.26,1.26.38,1.93.38,2.81,0,6.05-2.07,7.92-4.52.27-.36.53-.73.79-1.12,1.52-2.26,2.86-4.21,10.31-2.55,1.21,4.13,4.58,6.25,10.07,6.25h26.63c6.79,0,9.61-5.59,11.24-14.31,6.22,6.97,12.45,13.69,12.53,13.77.32.34.77.54,1.23.54h24.59c17.7,0,24.96-1.52,25.41-16.85.1-3.43-.97-6.3-3.19-8.52ZM13.63,99.43c-.22.33-.44.65-.67.95-1.84,2.41-4.8,3.55-5.82,3.09-.55-.24-.55-1.42-.37-2.45.61-3.45,6.32-18.09,8.57-19.8,1.52.15,5.87,2.62,9.37,5.05.36,2.39.95,6.34,1.34,8.9-7.84-1.41-10.37,1.2-12.42,4.25ZM87.24,99.54c-2.88-3.13-7.85-8.58-12.39-13.72,0,0-.01-.01-.02-.02-5.02-5.69-9.26-11.13-10.13-12.45-1.68-2.57,3.42-9.3,7.39-13.05.68-.64.71-1.7.07-2.38-.64-.68-1.7-.71-2.38-.07-1.99,1.87-11.72,11.51-7.9,17.34.91,1.39,4.94,6.59,9.91,12.25-1.8,11.78-4.55,14.18-8.37,14.18h-26.63c-5.53,0-6.68-2.39-7.08-4.72-.2-1.14-1.21-7.88-1.71-11.24,2.59-.07,7.17-.27,10.15-.83,2.24-.43,5.35-1.31,6.59-4.05,1.09-2.4.44-5.47-2.04-9.68-.32-.54-.71-1.16-1.15-1.87-2.63-4.2-7.02-11.22-7.02-18.23s3.05-12.86,25.21-12.86c20.18,0,43,17.04,49.86,36.87-1.89.54-4.53,1.71-6.78,4.21-3.11,3.45-4.56,8.38-4.36,14.64-1.15-.15-2.3-.34-2.63-.53-.22-.15-.55-.51-.95-1.01-.06-.1-.13-.18-.21-.26-2.24-2.92-6.56-10.09-10.09-16.46-.45-.81-1.47-1.11-2.29-.66-.81.45-1.11,1.47-.66,2.29,1.64,2.97,6.14,10.97,9.48,15.63-1.98,1.63-3.19,3.71-3.9,6.68ZM90.25,101.63c.54-3.28,1.51-4.94,2.99-6.15.3.31.58.55.82.7,1.05.66,2.78.88,5.18,1.18,5.06.63,9.66,1.46,10.93,4.27h-19.92ZM121.23,101.45c-2.17.13-4.67.17-7.53.18-1.07-5.16-7.07-6.63-11.85-7.32-.7-14.28,8.3-16.13,10.13-16.36,0,0,.02,0,.03,0,.01,0,1.1-.14,2.89-.19.92-.02,1.8-.03,2.66-.01,1.66,1.96,9.47,12.11,3.67,23.7ZM125.08,101.08c3.94-9.89-.32-18.73-3.18-23.09,5.09.53,8.83,1.88,10.96,4.02,1.56,1.56,2.28,3.54,2.21,6.04-.26,8.77-2.44,11.94-9.99,13.03Z"/>
</svg>