<?xml version="1.0" encoding="UTF-8"?>
<svg id="Ebene_1" data-name="Ebene 1" xmlns="http://www.w3.org/2000/svg" viewBox="0 0 141.73 141.73">
  <defs>
    <style>
      .cls-1 {
        fill: #c8c8c8;
        stroke-width: 0px;
      }
    </style>
  </defs>
  <path class="cls-1" d="M56.97,64.95c-.7-.61-1.76-.54-2.38.16-.61.7-.54,1.77.16,2.38l12.83,11.19c.31.27.7.42,1.11.42.1,0,.2,0,.3-.03.5-.09.94-.41,1.18-.86l17.76-33c.44-.82.13-1.84-.68-2.28-.82-.44-1.84-.13-2.28.69l-16.76,31.14-11.24-9.8Z"/>
  <path class="cls-1" d="M109.33,31.65c0-.91-.72-1.65-1.63-1.68-18.98-.66-35.83-10.39-35.99-10.49-.53-.31-1.18-.31-1.7,0-.17.1-17.01,9.83-35.99,10.49-.91.03-1.63.78-1.63,1.68v38.55c0,14.82,13.65,33.75,37.45,51.94.3.23.66.35,1.02.35s.72-.12,1.02-.35c23.8-18.18,37.45-37.11,37.45-51.94V31.65ZM105.97,70.2c0,13.36-13.1,31.42-35.1,48.47-22.01-17.05-35.1-35.12-35.1-48.47v-36.94c16.92-1.01,31.46-8.4,35.1-10.39,3.64,1.99,18.18,9.38,35.1,10.39v36.94Z"/>
  <path class="cls-1" d="M35.62,100.26l-7.31,5.59c-.74.56-.88,1.62-.31,2.36.33.43.83.66,1.34.66.36,0,.72-.11,1.02-.35l7.31-5.59c.74-.56.88-1.62.31-2.36-.56-.74-1.62-.88-2.36-.31Z"/>
  <path class="cls-1" d="M23.67,69.16h0l-9.2.04c-.93,0-1.68.76-1.68,1.69,0,.93.76,1.68,1.68,1.68h0l9.2-.04c.93,0,1.68-.76,1.68-1.69,0-.93-.76-1.68-1.68-1.68Z"/>
  <path class="cls-1" d="M14.69,34.26l7.62,5.16c.29.2.62.29.94.29.54,0,1.07-.26,1.4-.74.52-.77.32-1.82-.45-2.34l-7.62-5.16c-.77-.52-1.82-.32-2.34.45-.52.77-.32,1.82.45,2.34Z"/>
  <path class="cls-1" d="M113.42,105.85l-7.31-5.59c-.74-.56-1.8-.42-2.36.31-.57.74-.42,1.8.31,2.36l7.31,5.59c.31.23.66.35,1.02.35.51,0,1.01-.23,1.34-.66.56-.74.42-1.8-.31-2.36Z"/>
  <path class="cls-1" d="M127.27,69.2l-9.21-.04h0c-.93,0-1.68.75-1.68,1.68,0,.93.75,1.69,1.68,1.69l9.21.04h0c.93,0,1.68-.75,1.68-1.68,0-.93-.75-1.69-1.68-1.69Z"/>
  <path class="cls-1" d="M118.48,39.7c.32,0,.65-.09.94-.29l7.63-5.16c.77-.52.97-1.57.45-2.34-.52-.77-1.57-.97-2.34-.45l-7.63,5.16c-.77.52-.97,1.57-.45,2.34.32.48.86.74,1.4.74Z"/>
</svg>