<?xml version="1.0" encoding="UTF-8"?>
<svg id="Ebene_1" data-name="Ebene 1" xmlns="http://www.w3.org/2000/svg" viewBox="0 0 141.73 141.73">
  <defs>
    <style>
      .cls-1 {
        fill: #4c4c4c;
        stroke-width: 0px;
      }
    </style>
  </defs>
  <path class="cls-1" d="M121.17,109.05l-25.72-25.72c-2.52-2.52-6.32-2.96-9.29-1.35l-6.2-6.2c4.83-5.96,7.73-13.55,7.73-21.8,0-19.14-15.57-34.71-34.71-34.71s-34.71,15.57-34.71,34.71,15.57,34.71,34.71,34.71c9.27,0,17.7-3.66,23.93-9.61l6.08,6.08c-1.61,2.98-1.16,6.78,1.35,9.29l25.72,25.72c1.53,1.53,3.55,2.3,5.56,2.3s4.02-.77,5.56-2.3c3.07-3.07,3.07-8.05,0-11.12ZM52.97,84.2c-16.66,0-30.22-13.56-30.22-30.22s13.56-30.22,30.22-30.22,30.22,13.56,30.22,30.22-13.56,30.22-30.22,30.22Z"/>
</svg>