<?xml version="1.0" encoding="UTF-8"?>
<svg id="Ebene_1" xmlns="http://www.w3.org/2000/svg" width="141.7" height="141.7" version="1.1" viewBox="0 0 141.7 141.7">
  <!-- Generator: Adobe Illustrator 29.1.0, SVG Export Plug-In . SVG Version: 2.1.0 Build 142)  -->
  <defs>
    <style>
      .st0 {
        fill: #7e57d6;
      }
    </style>
  </defs>
  <path class="st0" d="M134.5,120.4L97.7,20.1c-.3-.7-1-1.2-1.8-1.1h-50.1c-.8,0-1.5.4-1.8,1.1L7.2,120.4c-.3.9.1,1.8,1,2.2.1,0,.2,0,.3,0h0c0,0,124.8,0,124.8,0h0c0,0,.2,0,.2-.1.9-.3,1.3-1.3,1-2.2h0ZM72.3,112.7c0,.9-.8,1.7-1.7,1.7s-1.7-.8-1.7-1.7v-31.9c0-.9.8-1.7,1.7-1.7s1.7.8,1.7,1.7v31.9ZM72.3,68.2c0,.9-.8,1.7-1.7,1.7s-1.7-.8-1.7-1.7v-18.4c0-.9.8-1.7,1.7-1.7s1.7.8,1.7,1.7v18.4ZM72.3,37.3c0,.9-.8,1.7-1.7,1.7s-1.7-.8-1.7-1.7v-8.1c0-.9.8-1.7,1.7-1.7s1.7.8,1.7,1.7v8.1Z"/>
</svg>