<?xml version="1.0" encoding="UTF-8"?>
<svg id="Ebene_1" xmlns="http://www.w3.org/2000/svg" width="141.7" height="141.7" version="1.1" viewBox="0 0 141.7 141.7">
  <!-- Generator: Adobe Illustrator 29.1.0, SVG Export Plug-In . SVG Version: 2.1.0 Build 142)  -->
  <defs>
    <style>
      .st0 {
        fill: #b41ed8;
      }
    </style>
  </defs>
  <path class="st0" d="M109.3,31.6c0-.9-.7-1.6-1.6-1.7-19-.6-35.8-10.4-36-10.5-.5-.3-1.2-.3-1.7,0-.2.1-17,9.8-36,10.5-.9,0-1.6.8-1.6,1.7v38.5c0,14.8,13.7,33.8,37.5,51.9.3.2.7.3,1,.3s.7-.1,1-.3c23.8-18.2,37.4-37.1,37.4-51.9V31.6ZM87.9,45.2l-17.8,33c-.2.4-.7.8-1.2.9,0,0-.2,0-.3,0-.4,0-.8-.2-1.1-.4l-12.8-11.2c-.7-.6-.8-1.7-.2-2.4s1.7-.8,2.4-.2l11.2,9.8,16.8-31.1c.4-.8,1.5-1.1,2.3-.7.8.4,1.1,1.5.7,2.3Z"/>
  <path class="st0" d="M35.6,100.3l-7.3,5.6c-.7.6-.9,1.6-.3,2.4.3.4.8.7,1.3.7s.7-.1,1-.3l7.3-5.6c.7-.6.9-1.6.3-2.4-.6-.7-1.6-.9-2.4-.3Z"/>
  <path class="st0" d="M23.7,69.2h-9.2c-.9,0-1.7.8-1.7,1.7s.8,1.7,1.7,1.7h9.2c.9,0,1.7-.8,1.7-1.7s-.8-1.7-1.7-1.7Z"/>
  <path class="st0" d="M14.7,34.3l7.6,5.2c.3.2.6.3.9.3.5,0,1.1-.3,1.4-.7.5-.8.3-1.8-.5-2.3l-7.6-5.2c-.8-.5-1.8-.3-2.3.5s-.3,1.8.5,2.3Z"/>
  <path class="st0" d="M113.4,105.8l-7.3-5.6c-.7-.6-1.8-.4-2.4.3-.6.7-.4,1.8.3,2.4l7.3,5.6c.3.2.7.3,1,.3.5,0,1-.2,1.3-.7.6-.7.4-1.8-.3-2.4h0Z"/>
  <path class="st0" d="M127.3,69.2h-9.2c-.9,0-1.7.7-1.7,1.6s.8,1.7,1.7,1.7h9.2c.9,0,1.7-.7,1.7-1.6s-.8-1.7-1.7-1.7Z"/>
  <path class="st0" d="M118.5,39.7c.3,0,.7,0,.9-.3l7.6-5.2c.8-.5,1-1.6.4-2.3-.5-.8-1.6-1-2.3-.5l-7.6,5.2c-.8.5-1,1.6-.4,2.3.3.5.9.7,1.4.7Z"/>
</svg>