<?xml version="1.0" encoding="UTF-8"?>
<svg id="Ebene_1" data-name="Ebene 1" xmlns="http://www.w3.org/2000/svg" viewBox="0 0 141.73 141.73">
  <defs>
    <style>
      .cls-1 {
        fill: #c8c8c8;
        stroke-width: 0px;
      }
    </style>
  </defs>
  <path class="cls-1" d="M46.21,19.11c-.87-.32-1.84.13-2.16,1L7.21,120.37c-.32.87.13,1.84,1,2.16.19.07.39.1.58.1.69,0,1.33-.42,1.58-1.1L47.21,21.27c.32-.87-.13-1.84-1-2.16Z"/>
  <path class="cls-1" d="M134.52,120.37L97.68,20.11c-.32-.87-1.29-1.32-2.16-1-.87.32-1.32,1.29-1,2.16l36.84,100.26c.25.68.89,1.1,1.58,1.1.19,0,.39-.03.58-.1.87-.32,1.32-1.29,1-2.16Z"/>
  <path class="cls-1" d="M70.63,24.82c-.93,0-1.68.75-1.68,1.68v9.14c0,.93.75,1.68,1.68,1.68s1.68-.75,1.68-1.68v-9.14c0-.93-.75-1.68-1.68-1.68Z"/>
  <path class="cls-1" d="M70.63,48.14c-.93,0-1.68.75-1.68,1.68v20.88c0,.93.75,1.68,1.68,1.68s1.68-.75,1.68-1.68v-20.88c0-.93-.75-1.68-1.68-1.68Z"/>
  <path class="cls-1" d="M70.63,83.21c-.93,0-1.68.75-1.68,1.68v36.15c0,.93.75,1.68,1.68,1.68s1.68-.75,1.68-1.68v-36.15c0-.93-.75-1.68-1.68-1.68Z"/>
</svg>