<?xml version="1.0" encoding="UTF-8"?>
<svg id="Ebene_1" data-name="Ebene 1" xmlns="http://www.w3.org/2000/svg" viewBox="0 0 141.73 141.73">
  <defs>
    <style>
      .cls-1 {
        fill: #bcbcbc;
        stroke-width: 0px;
      }
    </style>
  </defs>
  <path class="cls-1" d="M39.4,122.52c-.58,0-1.15-.18-1.67-.55-.97-.7-1.39-1.8-1.14-2.95l7.07-32.51c.4-1.85-.25-3.76-1.71-4.97l-23.59-19.61c-.91-.76-1.25-1.89-.91-3.03.34-1.14,1.25-1.9,2.43-2.03l29.98-3.41c1.74-.2,3.23-1.25,3.98-2.82l14.43-29.79c.49-1.01,1.46-1.62,2.59-1.62s2.1.61,2.59,1.62l14.43,29.79c.76,1.57,2.25,2.63,3.99,2.83l29.98,3.41c1.18.13,2.09.89,2.43,2.03.34,1.14,0,2.28-.92,3.03l-23.58,19.61c-1.46,1.21-2.11,3.12-1.71,4.97l7.07,32.52c.25,1.15-.17,2.25-1.13,2.94-.96.69-2.14.74-3.15.13l-27.38-16.44c-1.61-.97-3.61-.97-5.21,0l-27.38,16.43c-.47.28-.98.42-1.48.42ZM101.85,119.74h.01-.01ZM21.42,60.08l22.69,18.87c2.43,2.02,3.52,5.19,2.85,8.28l-6.83,31.4,26.4-15.84c2.68-1.61,6-1.61,8.68,0l26.39,15.84-6.83-31.4c-.67-3.09.42-6.26,2.85-8.28l22.69-18.87-28.83-3.28c-2.89-.33-5.37-2.09-6.64-4.7l-13.98-28.87-13.98,28.87c-1.26,2.61-3.75,4.37-6.63,4.7l-28.83,3.28Z"/>
</svg>