<?xml version="1.0" encoding="UTF-8"?>
<svg id="Ebene_1" data-name="Ebene 1" xmlns="http://www.w3.org/2000/svg" viewBox="0 0 141.73 141.73">
  <defs>
    <style>
      .cls-1 {
        fill: #3f66da;
        stroke-width: 0px;
      }
    </style>
  </defs>
  <path class="cls-1" d="M131.81,32.49h-40.56v-5.13c0-4.37-3.3-7.93-7.35-7.93h-26.08c-4.05,0-7.35,3.56-7.35,7.93v5.13H9.92c-3.81,0-6.91,3.1-6.91,6.91v76.01c0,3.81,3.1,6.9,6.91,6.9h121.89c3.81,0,6.9-3.1,6.9-6.9V39.39c0-3.81-3.1-6.91-6.9-6.91ZM53.85,27.36c0-2.52,1.79-4.56,3.98-4.56h26.08c2.19,0,3.98,2.05,3.98,4.56v5.13h-34.04v-5.13ZM21.74,118.94h-3.37V35.86h3.37v83.08ZM96.18,83.84h-17.35c-.93,0-1.68.75-1.68,1.68v17.35h-12.88v-17.35c0-.93-.75-1.68-1.68-1.68h-17.35v-12.88h17.35c.93,0,1.68-.75,1.68-1.68v-17.35h12.88v17.35c0,.93.75,1.68,1.68,1.68h17.35v12.88ZM121.04,118.94h-3.37V35.86h3.37v83.08Z"/>
</svg>