<?xml version="1.0" encoding="UTF-8"?>
<svg id="Ebene_1" xmlns="http://www.w3.org/2000/svg" width="141.7" height="141.7" version="1.1" viewBox="0 0 141.7 141.7">
  <!-- Generator: Adobe Illustrator 29.1.0, SVG Export Plug-In . SVG Version: 2.1.0 Build 142)  -->
  <defs>
    <style>
      .st0 {
        fill: #fc0;
      }
    </style>
  </defs>
  <path class="st0" d="M39.4,122.5c-.6,0-1.2-.2-1.7-.6-1-.7-1.4-1.8-1.1-2.9l7.1-32.5c.4-1.8-.2-3.8-1.7-5l-23.6-19.6c-.9-.8-1.2-1.9-.9-3s1.2-1.9,2.4-2l30-3.4c1.7-.2,3.2-1.2,4-2.8l14.4-29.8c.5-1,1.5-1.6,2.6-1.6s2.1.6,2.6,1.6l14.4,29.8c.8,1.6,2.2,2.6,4,2.8l30,3.4c1.2.1,2.1.9,2.4,2,.3,1.1,0,2.3-.9,3l-23.6,19.6c-1.5,1.2-2.1,3.1-1.7,5l7.1,32.5c.2,1.2-.2,2.2-1.1,2.9s-2.1.7-3.2.1l-27.4-16.4c-1.6-1-3.6-1-5.2,0l-27.4,16.4c-.5.3-1,.4-1.5.4h0ZM101.8,119.7h0,0Z"/>
</svg>