<?xml version="1.0" encoding="UTF-8"?>
<svg id="Ebene_1" data-name="Ebene 1" xmlns="http://www.w3.org/2000/svg" viewBox="0 0 141.73 141.73">
  <defs>
    <style>
      .cls-1 {
        fill: #bcbcbc;
        stroke-width: 0px;
      }
    </style>
  </defs>
  <path class="cls-1" d="M119.79,79.89c0-.05,0-.1-.02-.15-.03-.19-.08-.37-.15-.54,0-.02-.02-.03-.03-.05-.07-.16-.17-.31-.28-.44-.02-.02-.02-.05-.04-.06l-15.62-18.48c-.43-.5-1.05-.8-1.71-.8h-9.09c3.98-4.07,6.26-9.55,6.26-15.26,0-12.05-9.8-21.85-21.85-21.85-1.72,0-3.38.22-4.99.6-2.94-1.41-6.19-2.16-9.47-2.16-12.05,0-21.85,9.8-21.85,21.85,0,6.5,2.94,12.7,7.92,16.83h-9.1c-.66,0-1.29.29-1.71.8l-15.62,18.48s-.02.04-.04.06c-.11.14-.2.28-.28.44,0,.02-.02.03-.03.05-.07.17-.12.35-.15.54,0,.05-.01.1-.02.15,0,.07-.02.13-.02.2v38.71c0,1.24,1.01,2.25,2.25,2.25h93.4c1.24,0,2.25-1.01,2.25-2.25v-38.71c0-.07-.01-.14-.02-.2ZM55.56,68.61c-1.35-2.51-2.06-5.32-2.06-8.2,0-9.57,7.79-17.36,17.36-17.36s17.36,7.79,17.36,17.36c0,2.88-.71,5.69-2.06,8.2h-30.61ZM94.63,44.1c0,3.46-1.06,6.81-2.96,9.64-2.82-8.8-11.08-15.19-20.81-15.19-3.9,0-7.55,1.04-10.72,2.83,1.31-8.28,8.48-14.64,17.12-14.64,9.57,0,17.36,7.79,17.36,17.36ZM45.45,42.53c0-9.57,7.79-17.36,17.36-17.36,1.05,0,2.09.1,3.12.28-6.29,3.84-10.51,10.75-10.51,18.64,0,.26.05.51.13.74-2.59,2.55-4.54,5.74-5.61,9.3-2.84-3.16-4.49-7.3-4.49-11.61ZM40.82,63.86h8.47c.26,1.63.71,3.22,1.32,4.75h-8.28c-1.24,0-2.25,1.01-2.25,2.25s1.01,2.25,2.25,2.25h11.85s.03,0,.04,0h33.2s.01,0,.02,0c0,0,.01,0,.02,0h11.92c1.24,0,2.25-1.01,2.25-2.25s-1.01-2.25-2.25-2.25h-8.28c.62-1.53,1.06-3.12,1.32-4.75h8.47l11.82,13.99H29l11.82-13.99ZM26.41,116.56v-34.22h88.91v34.22H26.41Z"/>
</svg>