<?xml version="1.0" encoding="UTF-8"?>
<svg id="Ebene_1" xmlns="http://www.w3.org/2000/svg" width="109" height="109" version="1.1" viewBox="0 0 109 109">
  <!-- Generator: Adobe Illustrator 29.1.0, SVG Export Plug-In . SVG Version: 2.1.0 Build 142)  -->
  <defs>
    <style>
      .st0 {
        fill: #0fc8ca;
      }
    </style>
  </defs>
  <path class="st0" d="M52.2,83.3c-.9.2-1.5,1.1-1.3,2l1.5,8.2c.2.8.9,1.4,1.7,1.4s.2,0,.3,0c.9-.2,1.5-1.1,1.3-2l-1.5-8.2c-.2-.9-1.1-1.5-2-1.3h0Z"/>
  <path class="st0" d="M67.4,75.1c-.6.7-.6,1.8,0,2.4l6.2,5.7c.3.3.7.4,1.1.4s.9-.2,1.2-.6c.6-.7.6-1.8,0-2.4l-6.2-5.7c-.7-.6-1.8-.6-2.4,0h0v.2h.1Z"/>
  <path class="st0" d="M32.8,81.9l-3.8,7.6c-.4.8,0,1.8.8,2.3.2,0,.5.2.8.2.6,0,1.2-.3,1.5-.9l3.8-7.6c.4-.8,0-1.8-.8-2.3-.8-.4-1.8,0-2.3.8h0Z"/>
  <path class="st0" d="M108.6,44.9c-.4-.6-1.2-.9-1.9-.6-7.5,2.4-15.6-.3-20.1-6.8s-4.2-15,.6-21.2c.5-.6.5-1.4,0-2-.4-.6-1.2-.9-1.9-.6-2,.6-3.9,1.6-5.6,2.8-9.6,6.7-12,19.9-5.3,29.5,4.1,5.9,10.7,9.1,17.4,9.1s8.4-1.2,12.1-3.8c1.7-1.2,3.3-2.7,4.6-4.3.5-.6.5-1.4,0-2h.1Z"/>
  <path class="st0" d="M93.8,63.5c-.9-.2-1.8.5-1.9,1.4-.4,2.5-1.1,5-1.9,7.4-.2.6-.5,1.3-.7,1.9v.2c-.3.7-.5,1.3-.8,1.9v.2c-.3.6-.6,1.2-.9,1.8v.2c-.3.6-.6,1.1-.9,1.7,0,0,0,.2-.2.3-.3.5-.6,1-.9,1.5,0,.2-.2.3-.3.5-.3.4-.6.8-.9,1.3-.2.2-.3.4-.5.6-.3.3-.5.7-.8,1-.2.3-.4.5-.7.8-.2.3-.4.5-.7.8-.3.3-.6.6-.9,1-.2.2-.3.4-.5.6l-1.1,1.1s-.3.2-.4.4c-.4.4-.8.8-1.3,1.2l-.3.3c-.5.4-.9.8-1.4,1.2,0,0-.2,0-.3.2-.5.4-1,.7-1.5,1.1,0,0-.2.2-.4.3-.4.3-.9.6-1.3.9-.2,0-.4.3-.7.4-.3.2-.7.4-1,.6-.4.2-.7.4-1.1.6-.2,0-.3.2-.5.3-6.2,3.3-13.2,5.2-20.3,5.3h-4.1c-.5,0-1,0-1.5-.2h-.6c-.6,0-1.1-.2-1.7-.2h-.5c-.5,0-1-.2-1.5-.3-.3,0-.5,0-.8-.2-.4,0-.7-.2-1.1-.3-.4,0-.8-.2-1.2-.3-.2,0-.5,0-.7-.2-.5-.2-1.1-.3-1.6-.5h-.4c-.6-.2-1.2-.4-1.8-.7h-.2c-.7-.3-1.3-.5-1.9-.8h-.2c-.6-.3-1.2-.6-1.8-.9h-.2c-.6-.3-1.2-.6-1.7-1,0,0-.2,0-.3-.2-.5-.3-1-.6-1.5-1,0,0-.3-.2-.4-.3-.4-.3-.9-.6-1.3-.9-.2,0-.4-.3-.6-.4-.4-.3-.7-.6-1.1-.8-.2-.2-.5-.4-.7-.6-.3-.2-.6-.5-.8-.7-.3-.3-.6-.5-.9-.8-.2-.2-.4-.4-.6-.6-.3-.3-.7-.7-1-1-.2-.2-.3-.3-.4-.5-.4-.4-.8-.8-1.1-1.2-.1,0-.2-.2-.3-.4-.4-.4-.8-.9-1.1-1.4,0,0-.2-.2-.3-.3-.4-.5-.7-.9-1-1.4-.1-.2-.2-.3-.3-.4-.3-.4-.6-.8-.8-1.2-.2-.2-.3-.5-.5-.7-.2-.3-.4-.6-.5-.9-.2-.4-.5-.8-.7-1.2,0-.2-.2-.3-.2-.4-3.3-6.2-5.2-13.2-5.3-20.4v-6.3c0-.5,0-1,.2-1.6v-.7c0-.5.2-.9.3-1.4,0-.3,0-.6.2-.9,0-.3.2-.7.3-1,0-.4.2-.8.3-1.3,0-.2,0-.4.2-.6.2-.5.3-1.1.5-1.7v-.3c.2-.6.5-1.3.7-1.9v-.2c.3-.7.5-1.3.8-1.9h0c.3-.7.6-1.3.9-2v-.2c.4-.6.7-1.2,1.1-1.7,0,0,.1-.2.2-.3.3-.5.6-1,1-1.5,0,0,.2-.3.3-.4.3-.4.6-.9.9-1.3.1-.2.3-.4.4-.6.3-.4.5-.7.8-1.1.2-.2.4-.5.6-.7.2-.3.5-.6.7-.8.3-.3.5-.6.8-.9.2-.2.4-.4.6-.6l1-1,.5-.5c.4-.4.8-.7,1.2-1.1,0,0,.3-.2.4-.3.4-.4.9-.7,1.3-1.1,0,0,.2-.2.4-.3.5-.3.9-.7,1.4-1,.2,0,.3-.2.5-.3.4-.3.8-.5,1.2-.8.3-.2.5-.3.8-.5s.6-.3.8-.5c.4-.2.8-.5,1.2-.7,0,0,.3,0,.4-.2,6.2-3.3,13.2-5.2,20.4-5.3h4.1c.5,0,1,0,1.4.1h.7c.5,0,1.1.1,1.6.2,1.8.3,3.5.7,5.3,1.2l-8.1,2.5c-.9.3-1.4,1.2-1.1,2.1.2.7.9,1.2,1.6,1.2s.3,0,.5,0l12.4-3.9c.5-.2.9-.5,1.1-1s0-1-.2-1.5l-7.1-11.1c-.5-.8-1.5-1-2.3-.5s-1,1.5-.5,2.3l4.2,6.6c-1.6-.5-3.2-.8-4.8-1.1h-.5c-.6,0-1.2-.2-1.7-.3h-.7c-.6,0-1.1-.1-1.7-.2h-4.5c-7,.1-13.8,1.7-20.1,4.8h0c-.6.3-1.2.6-1.7.9-.2,0-.4.2-.5.3-.4.2-.8.5-1.2.7-.3.2-.7.4-1,.6s-.5.3-.8.5c-.5.3-.9.6-1.3.9,0,0-.2,0-.2.2,0,0-.2,0-.2.2-.5.4-1,.7-1.5,1.1,0,0-.2.2-.4.3-.5.4-1,.8-1.5,1.2,0,0-.3.2-.4.3-.5.4-.9.8-1.3,1.2l-.5.5c-.4.4-.7.7-1.1,1.1-.2.2-.4.4-.6.7-.3.3-.6.6-.9,1-.3.3-.5.6-.8.9-.2.3-.4.5-.6.8-.3.4-.6.8-.9,1.2-.1.2-.3.4-.5.6-.3.5-.7.9-1,1.4,0,.2-.2.3-.3.4-.4.5-.7,1.1-1,1.7,0,0,0,.2-.2.3-.4.6-.7,1.2-1,1.9v.2c-.4.7-.8,1.3-1.1,2h0c-.3.8-.6,1.5-.9,2.2v.2c-.3.7-.5,1.4-.8,2v.2h0c-.2.7-.4,1.3-.6,1.9,0,.2-.1.4-.2.7-.1.5-.2.9-.4,1.4,0,.4-.2.7-.3,1.1,0,.3-.1.6-.2,1,0,.5-.2,1-.3,1.5v.7C.2,51.7,0,52.2,0,52.8v6.7C0,67.2,2.1,74.7,5.8,81.5c0,0,0,.2.2.4.2.5.5.9.8,1.4.2.3.3.6.5.8.2.3.4.6.6.9.3.4.5.8.8,1.2,0,0,.1.2.2.3,0,0,.2.2.2.3.3.5.7.9,1,1.4.1.2.2.3.4.5.4.5.7.9,1.1,1.4.1.2.3.3.4.5.4.4.7.8,1.1,1.2.2.2.4.4.5.6.3.3.7.7,1,1,.2.2.5.5.7.7.3.3.6.6.9.8.3.3.6.6,1,.8.2.2.5.4.8.6.4.3.8.6,1.2.9.2,0,.4.3.6.4.5.3,1,.7,1.5,1,0,0,.3.2.4.3.5.4,1.1.7,1.7,1.1,0,0,.2,0,.3.2.6.4,1.2.7,1.9,1.1h.2c.7.3,1.3.7,2,1h0c.7.3,1.4.6,2.1.9h.2c.7.3,1.3.5,2,.8h.4c.5.2.9.3,1.4.4.3,0,.6.2.9.3.3,0,.7.2,1.1.3.5,0,.9.2,1.4.3.2,0,.4,0,.6.2,2.8.6,5.5,1,8.3,1.1h2.2c9,0,17.8-2.5,25.5-7.4.2,0,.4-.2.6-.4,0,0,.2-.2.3-.2,1.1-.7,2.1-1.4,3.1-2.2h.2c.6-.4,1.1-.9,1.7-1.4h0c1.1-1,2.2-2,3.3-3.1l.4-.4c.3-.4.7-.7,1-1.1.2-.2.4-.4.6-.7.2-.3.5-.6.8-.9.2-.3.4-.5.7-.8,0-.2.2-.3.4-.5.6-.8,1.2-1.6,1.7-2.4,0,0,0-.2.2-.2.3-.5.6-.9.9-1.4,0,0,0-.2.2-.3.3-.5.6-1,.8-1.5h0c1.2-2.3,2.2-4.5,3-6.8v-.3h0c.9-2.5,1.5-5.1,2-7.7.2-.9-.5-1.8-1.4-1.9h0l-.8-1.3v-.2h.2Z"/>
  <path class="st0" d="M42.2,34.5c-6,1.3-11.2,4.8-14.6,9.9-3.4,5.1-4.6,11.2-3.3,17.1,2.3,10.5,11.8,17.7,22.4,17.7s3.3-.2,5-.5c12.5-2.7,20.5-14.8,17.9-27s-14.9-19.9-27.4-17.2h0Z"/>
  <path class="st0" d="M41.2,30.4h.4c.9-.2,1.5-1.1,1.3-2l-1.8-8.2c-.2-.9-1.1-1.5-2-1.3s-1.5,1.1-1.3,2l1.8,8.2c.2.8.9,1.3,1.6,1.3Z"/>
  <path class="st0" d="M58.7,32.5c.6,0,1.2-.3,1.5-.9l3.8-7.6c.4-.8,0-1.8-.8-2.3-.8-.4-1.8,0-2.3.8l-3.8,7.6c-.4.8,0,1.8.8,2.3.2,0,.5.2.8.2h0Z"/>
  <path class="st0" d="M13.5,76c.3,0,.5,0,.8-.2l7.6-4c.8-.4,1.1-1.4.7-2.3s-1.5-1.1-2.3-.7l-7.6,4c-.8.4-1.1,1.4-.7,2.3.3.6.9.9,1.5.9Z"/>
  <path class="st0" d="M18.1,54.5c.8,0,1.5-.6,1.7-1.5,0-.9-.5-1.8-1.4-1.9l-8.5-1.2c-.9,0-1.8.5-1.9,1.4s.5,1.8,1.4,1.9l8.5,1.2h.2,0Z"/>
  <path class="st0" d="M26.3,38.4c.4,0,.9-.2,1.2-.5.6-.7.6-1.7,0-2.4l-6.1-5.8c-.7-.6-1.7-.6-2.4,0s-.6,1.7,0,2.4l6.1,5.8c.3.3.8.5,1.2.5Z"/>
  <path class="st0" d="M84.7,63.8h.2c.8,0,1.6-.6,1.7-1.5s-.5-1.8-1.4-1.9l-8.5-1.2c-.9,0-1.8.5-1.9,1.4s.5,1.8,1.4,1.9l8.5,1.2h0Z"/>
</svg>