<?xml version="1.0" encoding="UTF-8"?>
<svg id="Ebene_1" xmlns="http://www.w3.org/2000/svg" width="109.3" height="109.3" version="1.1" viewBox="0 0 109.3 109.3">
  <!-- Generator: Adobe Illustrator 29.1.0, SVG Export Plug-In . SVG Version: 2.1.0 Build 142)  -->
  <defs>
    <style>
      .st0 {
        fill: #c8c8c8;
      }
    </style>
  </defs>
  <path class="st0" d="M52.6,84.4c-.9.2-1.5,1.1-1.3,2l1.5,8.2c.2.8.9,1.4,1.7,1.4s.2,0,.3,0c.9-.2,1.5-1.1,1.3-2l-1.5-8.2c-.2-.9-1.1-1.5-2-1.3h0Z"/>
  <path class="st0" d="M67.8,76.2c-.6.7-.6,1.8,0,2.4l6.2,5.7c.3.3.7.4,1.1.4s.9-.2,1.2-.6c.6-.7.6-1.8,0-2.4l-6.2-5.7c-.7-.6-1.8-.6-2.4,0h.1Z"/>
  <path class="st0" d="M33.2,83l-3.8,7.6c-.4.8,0,1.8.8,2.3.2,0,.5.2.8.2.6,0,1.2-.3,1.5-.9l3.8-7.6c.4-.8,0-1.8-.8-2.3-.8-.4-1.8,0-2.3.8h0Z"/>
  <path class="st0" d="M109,46c-.4-.6-1.2-.9-1.9-.6-7.5,2.4-15.6-.3-20.1-6.8s-4.2-15,.6-21.2c.5-.6.5-1.4,0-2-.4-.6-1.2-.9-1.9-.6-2,.6-3.9,1.6-5.6,2.8-4.7,3.2-7.8,8.1-8.8,13.6s.2,11.2,3.4,15.8c3.2,4.7,8.1,7.8,13.6,8.8,1.3.2,2.5.3,3.8.3,4.3,0,8.4-1.3,12-3.8,1.7-1.2,3.3-2.6,4.6-4.3.5-.6.5-1.4,0-2h.3ZM89.2,52.4c-4.7-.8-8.8-3.5-11.5-7.4s-3.7-8.6-2.9-13.3c.8-4.7,3.4-8.7,7.3-11.4-2.7,6.5-2,14.1,2.2,20.2s11,9.3,18.1,9.1c-3.9,2.7-8.6,3.7-13.2,2.8h0Z"/>
  <path class="st0" d="M94.3,64.6c-.9-.2-1.8.5-1.9,1.4-.4,2.5-1.1,5-1.9,7.3-.2.6-.4,1.2-.7,1.8v.2c-.3.6-.5,1.2-.8,1.9v.2c-.3.6-.6,1.2-.8,1.7,0,0,0,.2-.2.4-.3.5-.5,1-.8,1.4,0,.2-.3.4-.4.7-.2.4-.4.7-.7,1.1-.2.3-.4.7-.7,1-.2.2-.3.5-.5.7-.3.4-.6.9-.9,1.3,0,0-.2.2-.3.3-.4.5-.8,1.1-1.3,1.6h0c-2.4,2.8-5.1,5.3-8.2,7.4-.5.4-1,.7-1.6,1.1-.2,0-.3.2-.5.3-.3.2-.7.4-1,.6-.4.2-.8.4-1.2.7,0,0-.2,0-.4.2-.6.3-1.2.6-1.8.9-4,1.9-8.2,3.3-12.5,3.9h-.2c-.6,0-1.2.2-1.8.2h-.7c-.5,0-.9,0-1.4,0h-6.3c-.6,0-1.3,0-1.9-.2h-.3c-.6,0-1.2-.2-1.9-.3h-.4c-.6,0-1.1-.2-1.7-.3-.2,0-.4,0-.6,0-.4,0-.9-.2-1.3-.3-.3,0-.7-.2-1-.3-.3,0-.6-.2-.9-.3-.4,0-.9-.3-1.3-.4-.2,0-.4-.2-.6-.2-.5-.2-1-.4-1.5-.6-.2,0-.4-.2-.7-.3-.5-.2-.9-.4-1.4-.6-.3,0-.5-.3-.8-.4-.4-.2-.8-.4-1.1-.6-.3-.2-.7-.4-1-.6s-.6-.3-.8-.5c-.4-.2-.8-.5-1.2-.8-.2,0-.4-.2-.6-.3-.5-.3-.9-.6-1.4-.9-.1,0-.2-.2-.3-.2-.5-.4-1-.8-1.5-1.1,0,0-.1,0-.2,0-.5-.4-1.1-.9-1.6-1.3h0c-.5-.5-1-.9-1.5-1.4h0l-1.5-1.5h0c-.5-.5-.9-1-1.4-1.5v-.2c-.5-.5-.9-1-1.3-1.4,0,0-.1-.2-.2-.3-.3-.4-.7-.9-1-1.3-.1-.2-.2-.3-.3-.5-.3-.4-.5-.8-.8-1.2-.1-.2-.3-.5-.5-.7-.2-.3-.4-.7-.6-1-.2-.3-.4-.6-.6-1-.1-.3-.3-.5-.4-.8-.2-.4-.4-.8-.6-1.2,0-.2-.2-.4-.3-.6-.2-.5-.5-1-.7-1.5,0,0,0-.2-.2-.4-.2-.6-.5-1.1-.7-1.7v-.2c-.2-.6-.4-1.2-.6-1.9h0c-.2-.8-.4-1.4-.6-2.1h0c-.2-.7-.3-1.3-.5-2h0c0-.8-.3-1.4-.4-2.1v-.2c0-.6-.2-1.2-.3-1.8v-.4c0-.6,0-1.1,0-1.7v-6.4c0-.5,0-1,0-1.5v-.7c0-.6,0-1.1.2-1.7,0-.2,0-.4,0-.6,0-.5.2-1,.3-1.5,0-.3,0-.5.2-.8,0-.4.2-.8.3-1.2,0-.4.2-.8.3-1.1,0-.3.2-.5.2-.8,0-.5.3-1,.5-1.4,0-.2,0-.4.2-.6.2-.5.4-1,.6-1.5,0-.2.2-.4.3-.6.2-.5.4-.9.6-1.4,0-.3.2-.5.4-.8.2-.4.4-.8.6-1.2.2-.3.4-.7.5-1,.2-.3.3-.6.5-.9.2-.4.5-.8.7-1.2.1-.2.3-.4.4-.6.3-.5.6-.9.9-1.3,0,0,.2-.3.3-.4.4-.5.7-1,1.1-1.4,0,0,.1-.2.2-.2.4-.5.8-1,1.2-1.5,0,0,.1-.1.1-.2.4-.5.9-1,1.3-1.4v-.2c.5-.5,1-.9,1.5-1.3l.2-.2c.4-.4.9-.8,1.3-1.2l.3-.3c.4-.4.8-.7,1.3-1,.2-.1.3-.2.5-.4.4-.3.8-.6,1.2-.8.2-.2.5-.3.7-.5.3-.2.6-.4,1-.7.3-.2.6-.4.9-.6.2-.2.5-.3.8-.5.4-.2.8-.5,1.2-.7.2,0,.3-.2.5-.3.5-.3,1-.5,1.5-.8,0,0,.2,0,.3-.1.6-.3,1.2-.5,1.8-.8h0c3.9-1.7,8.1-2.8,12.4-3.3h0c.7,0,1.3-.1,1.9-.2h6.5c.5,0,.9,0,1.4.1h.8c.5,0,1,.1,1.6.2,1.8.3,3.6.7,5.3,1.2l-8.1,2.5c-.9.3-1.4,1.2-1.1,2.1.2.7.9,1.2,1.6,1.2s.3,0,.5,0l12.4-3.9c.5-.2.9-.5,1.1-1s0-1-.2-1.5l-7.1-11.1c-.5-.8-1.5-1-2.3-.5s-1,1.5-.5,2.3l4.2,6.6c-1.6-.5-3.2-.8-4.8-1.1h-.6c-.6,0-1.1-.2-1.7-.2h-.8c-.5,0-1.1-.1-1.6-.1h-6.9c-.6,0-1.2.1-1.8.2h-.5c-.7,0-1.3.2-2,.3h-.2c-.7.1-1.4.2-2.1.4h0c-.7.2-1.5.3-2.2.5h0c-.7.2-1.5.4-2.2.6h0c-.7.2-1.4.5-2.1.7h-.2c-.6.2-1.3.5-1.9.8-.1,0-.2,0-.3.1-.6.2-1.1.5-1.7.8-.2,0-.4.2-.5.3-.5.2-.9.5-1.4.7-.2.1-.5.3-.8.4-.4.2-.8.4-1.1.7-.3.2-.7.4-1,.6s-.6.4-.9.5c-.4.3-.8.5-1.2.8-.2.1-.4.3-.6.4-.5.3-.9.7-1.3,1-.1,0-.3.2-.4.3-.5.4-1,.8-1.5,1.2,0,0-.2.1-.2.2-.5.5-1,.9-1.5,1.4,0,0-.1,0-.1.1l-1.5,1.5h-.1c-.5.6-1,1.1-1.5,1.7,0,0,0,.1-.1.2-.5.5-.9,1-1.3,1.6,0,0-.1.2-.2.3-.4.5-.8,1-1.2,1.5-.1.1-.2.3-.3.4-.3.5-.7,1-1,1.4,0,.2-.3.5-.4.7-.3.4-.5.8-.8,1.3-.2.3-.4.7-.5,1-.2.3-.4.7-.6,1-.2.4-.4.8-.6,1.3,0,.3-.3.5-.4.8-.2.5-.5,1-.7,1.5,0,.2-.2.4-.3.7-.2.5-.4,1.1-.6,1.7,0,.2,0,.3-.2.5v.2c-.2.5-.3,1-.5,1.5,0,.3-.2.6-.3.9-.1.4-.2.8-.3,1.2-.1.4-.2.8-.3,1.2,0,.3-.1.6-.2.8-.1.5-.2,1.1-.3,1.6v.7c-.1.6-.2,1.2-.3,1.8v.7c0,.6-.1,1.1-.2,1.7v6.9c0,.6.1,1.2.2,1.8v.5c0,.7.2,1.3.3,2v.3c0,.7.2,1.4.4,2.1h0c.1.8.3,1.5.5,2.3h0c.2.7.4,1.4.6,2.1h0c.2.8.4,1.4.7,2.1v.2c.2.6.5,1.2.7,1.8,0,0,0,.3.2.4.2.5.5,1.1.7,1.6,0,.2.2.4.3.6.2.4.5.9.7,1.3,0,.3.3.6.5.8.2.3.4.7.6,1,.2.4.4.7.6,1.1.2.3.3.5.5.8.3.4.6.8.9,1.3.1.2.2.3.4.5.4.5.7,1,1.1,1.4,0,0,.2.2.2.3.4.5.8,1,1.3,1.6,0,0,0,0,.1.2.5.5,1,1.1,1.4,1.6h0c.5.5,1,1.1,1.6,1.6h0c.5.5,1.1,1,1.6,1.5h0c.5.5,1.1.9,1.7,1.4,0,0,.1,0,.2.2.5.4,1.1.8,1.6,1.2.1,0,.2.2.4.3.5.3,1,.7,1.5,1,.2,0,.4.3.6.4.4.3.9.5,1.3.8.3.2.6.3.9.5s.7.4,1.1.6.8.4,1.3.6c.3,0,.5.3.8.4.5.2,1,.5,1.5.7.2,0,.4.2.6.3.6.2,1.1.4,1.7.6.2,0,.3,0,.4.2h.2c.4,0,.8.2,1.1.4s.8.2,1.1.3c.3,0,.6.2.9.2.5.2,1.1.3,1.6.4.2,0,.3,0,.5,0,3.5.8,7,1.2,10.5,1.2s.4,0,.6,0h2.5c.8,0,1.5,0,2.3-.2h0c6.9-.8,13.5-3,19.5-6.7.3-.2.6-.4.9-.6.2,0,.4-.3.7-.4,3.8-2.5,7.2-5.5,10.1-8.8h0c.5-.5.9-1.1,1.3-1.6,0,0,.2-.3.3-.4.3-.4.7-.9,1-1.3.2-.3.4-.5.6-.8s.4-.7.7-1c.3-.4.5-.8.8-1.2,0-.2.3-.4.4-.7.3-.5.6-1.1.9-1.6,0,0,0-.2.2-.4.3-.6.6-1.2.9-1.9v-.2c.3-.7.6-1.4.9-2h0c.3-.8.5-1.4.8-2.1v-.2h0c.9-2.5,1.5-5.1,2-7.7.2-.9-.5-1.8-1.4-1.9h0l.2-.3Z"/>
  <path class="st0" d="M60.1,38.6c-5.2-3.2-11.4-4.3-17.4-3s-11.2,4.8-14.6,9.9c-3.4,5.1-4.6,11.2-3.3,17.1,1.3,5.9,4.8,10.9,10,14.2,3.7,2.3,8,3.5,12.3,3.5s3.4-.2,5.1-.5c6.1-1.3,11.2-4.8,14.6-9.9s4.6-11.2,3.3-17.1c-1.3-5.9-4.8-11-10-14.2ZM64,68c-2.9,4.3-7.3,7.4-12.5,8.5s-10.5.2-14.9-2.6c-4.4-2.8-7.4-7-8.5-12.1-1.1-5,0-10.2,2.8-14.5,2.9-4.3,7.3-7.4,12.5-8.5,1.5-.3,2.9-.5,4.3-.5,3.7,0,7.4,1,10.6,3,4.4,2.8,7.4,7,8.5,12.1,1.1,5,0,10.2-2.8,14.5h0Z"/>
  <path class="st0" d="M41.6,31.5h.4c.9-.2,1.5-1.1,1.3-2l-1.8-8.2c-.2-.9-1.1-1.5-2-1.3s-1.5,1.1-1.3,2l1.8,8.2c.2.8.9,1.3,1.6,1.3Z"/>
  <path class="st0" d="M59.2,33.5c.6,0,1.2-.3,1.5-.9l3.8-7.6c.4-.8,0-1.8-.8-2.3-.8-.4-1.8,0-2.3.8l-3.8,7.6c-.4.8,0,1.8.8,2.3.2,0,.5.2.8.2h0Z"/>
  <path class="st0" d="M14,77.1c.3,0,.5,0,.8-.2l7.6-4c.8-.4,1.1-1.4.7-2.3s-1.5-1.1-2.3-.7l-7.6,4c-.8.4-1.1,1.4-.7,2.3.3.6.9.9,1.5.9Z"/>
  <path class="st0" d="M18.5,55.5c.8,0,1.5-.6,1.7-1.5.1-.9-.5-1.8-1.4-1.9l-8.5-1.2c-.9,0-1.8.5-1.9,1.4s.5,1.8,1.4,1.9l8.5,1.2h.2,0Z"/>
  <path class="st0" d="M26.8,39.5c.4,0,.9-.2,1.2-.5.6-.7.6-1.7,0-2.4l-6.1-5.8c-.7-.6-1.7-.6-2.4,0s-.6,1.7,0,2.4l6.1,5.8c.3.3.8.5,1.2.5Z"/>
  <path class="st0" d="M85.2,64.9h.2c.8,0,1.6-.6,1.7-1.5s-.5-1.8-1.4-1.9l-8.5-1.2c-.9,0-1.8.5-1.9,1.4s.5,1.8,1.4,1.9l8.5,1.2h0Z"/>
</svg>