<?xml version="1.0" encoding="UTF-8"?>
<svg id="Ebene_1" xmlns="http://www.w3.org/2000/svg" width="135.2" height="135.2" version="1.1" viewBox="0 0 135.2 135.2">
  <!-- Generator: Adobe Illustrator 29.1.0, SVG Export Plug-In . SVG Version: 2.1.0 Build 142)  -->
  <defs>
    <style>
      .st0 {
        fill: #bcbcbc;
      }
    </style>
  </defs>
  <path class="st0" d="M131.9,76.3c-3.7-3.8-10.6-5.5-20.4-5.2h-1.8c-7.1-21.3-31.6-39.7-53.2-39.7s-28.6,4.8-28.6,16.2,4.7,15.5,7.5,20c.4.7.8,1.3,1.1,1.8,1.8,3.1,2.5,5.3,1.9,6.6-.4,1-1.8,1.7-4.2,2.1-4,.8-11.4.8-11.5.8-.3,0-.6,0-.8.2-2.9-1.9-7.7-4.8-10.2-4.7-4.9.2-11.4,21.5-11.5,22.6-.7,4.1,1.2,5.6,2.3,6.1.6.3,1.3.4,1.9.4,2.8,0,6.1-2.1,7.9-4.5.3-.4.5-.7.8-1.1,1.5-2.3,2.9-4.2,10.3-2.6,1.2,4.1,4.6,6.2,10.1,6.2h26.6c6.8,0,9.6-5.6,11.2-14.3,6.2,7,12.4,13.7,12.5,13.8.3.3.8.5,1.2.5h24.6c17.7,0,25-1.5,25.4-16.8.1-3.4-1-6.3-3.2-8.5h.1ZM10.3,96.1c-.2.3-.4.7-.7.9-1.8,2.4-4.8,3.6-5.8,3.1-.6-.2-.6-1.4-.4-2.4.6-3.4,6.3-18.1,8.6-19.8,1.5.2,5.9,2.6,9.4,5.1.4,2.4,1,6.3,1.3,8.9-7.8-1.4-10.4,1.2-12.4,4.2h0ZM83.9,96.3c-2.9-3.1-7.8-8.6-12.4-13.7h0c-5-5.7-9.3-11.1-10.1-12.5-1.7-2.6,3.4-9.3,7.4-13,.7-.6.7-1.7,0-2.4s-1.7-.7-2.4,0c-2,1.9-11.7,11.5-7.9,17.3.9,1.4,4.9,6.6,9.9,12.2-1.8,11.8-4.6,14.2-8.4,14.2h-26.6c-5.5,0-6.7-2.4-7.1-4.7-.2-1.1-1.2-7.9-1.7-11.2,2.6,0,7.2-.3,10.2-.8,2.2-.4,5.3-1.3,6.6-4.1,1.1-2.4.4-5.5-2-9.7-.3-.5-.7-1.2-1.2-1.9-2.6-4.2-7-11.2-7-18.2s3-12.9,25.2-12.9,43,17,49.9,36.9c-1.9.5-4.5,1.7-6.8,4.2-3.1,3.4-4.6,8.4-4.4,14.6-1.2-.2-2.3-.3-2.6-.5-.2-.2-.6-.5-.9-1,0,0,0-.2-.2-.3-2.2-2.9-6.6-10.1-10.1-16.5-.4-.8-1.5-1.1-2.3-.7s-1.1,1.5-.7,2.3c1.6,3,6.1,11,9.5,15.6-2,1.6-3.2,3.7-3.9,6.7h0ZM86.9,98.3c.5-3.3,1.5-4.9,3-6.2.3.3.6.6.8.7,1.1.7,2.8.9,5.2,1.2,5.1.6,9.7,1.5,10.9,4.3h-19.9ZM117.9,98.2c-2.2,0-4.7.2-7.5.2-1.1-5.2-7.1-6.6-11.8-7.3-.7-14.3,8.3-16.1,10.1-16.4h0s1.1,0,2.9-.2h2.7c1.7,2,9.5,12.1,3.7,23.7h0ZM121.8,97.8c3.9-9.9-.3-18.7-3.2-23.1,5.1.5,8.8,1.9,11,4,1.6,1.6,2.3,3.5,2.2,6-.3,8.8-2.4,11.9-10,13h0Z"/>
</svg>