<?xml version="1.0" encoding="UTF-8"?>
<svg id="Ebene_1" xmlns="http://www.w3.org/2000/svg" width="130" height="130" version="1.1" viewBox="0 0 130 130">
  <!-- Generator: Adobe Illustrator 29.1.0, SVG Export Plug-In . SVG Version: 2.1.0 Build 142)  -->
  <defs>
    <style>
      .st0 {
        fill: #7e57d6;
      }
    </style>
  </defs>
  <path class="st0" d="M128.7,114.4L91.9,14.1c-.3-.7-1-1.2-1.8-1.1h-50.1c-.8,0-1.5.4-1.8,1.1L1.4,114.4c-.3.9,0,1.8,1,2.2h125.3c.9-.3,1.3-1.3,1-2.2h0ZM66.5,106.7c0,.9-.8,1.7-1.7,1.7s-1.7-.8-1.7-1.7v-31.9c0-.9.8-1.7,1.7-1.7s1.7.8,1.7,1.7v31.9ZM66.5,62.2c0,.9-.8,1.7-1.7,1.7s-1.7-.8-1.7-1.7v-18.4c0-.9.8-1.7,1.7-1.7s1.7.8,1.7,1.7c0,0,0,18.4,0,18.4ZM66.5,31.3c0,.9-.8,1.7-1.7,1.7s-1.7-.8-1.7-1.7v-8.1c0-.9.8-1.7,1.7-1.7s1.7.8,1.7,1.7v8.1Z"/>
</svg>