<?xml version="1.0" encoding="UTF-8"?>
<svg id="Ebene_1" xmlns="http://www.w3.org/2000/svg" width="127.5" height="127.5" version="1.1" viewBox="0 0 127.5 127.5">
  <!-- Generator: Adobe Illustrator 29.1.0, SVG Export Plug-In . SVG Version: 2.1.0 Build 142)  -->
  <defs>
    <style>
      .st0 {
        fill: #c8c8c8;
      }
    </style>
  </defs>
  <path class="st0" d="M39.1,12c-.9-.3-1.8.1-2.2,1L.1,113.3c-.3.9.1,1.8,1,2.2h.6c.7,0,1.3-.4,1.6-1.1L40.1,14.2c.3-.9,0-1.8-1-2.2Z"/>
  <path class="st0" d="M127.4,113.3L90.6,13c-.3-.9-1.3-1.3-2.2-1s-1.3,1.3-1,2.2l36.8,100.3c.2.7.9,1.1,1.6,1.1s.4,0,.6,0c.9-.3,1.3-1.3,1-2.2h0Z"/>
  <path class="st0" d="M63.5,17.7c-.9,0-1.7.8-1.7,1.7v9.1c0,.9.8,1.7,1.7,1.7s1.7-.8,1.7-1.7v-9.1c0-.9-.8-1.7-1.7-1.7Z"/>
  <path class="st0" d="M63.5,41c-.9,0-1.7.8-1.7,1.7v20.9c0,.9.8,1.7,1.7,1.7s1.7-.8,1.7-1.7v-20.9c0-.9-.8-1.7-1.7-1.7Z"/>
  <path class="st0" d="M63.5,76.1c-.9,0-1.7.8-1.7,1.7v36.2c0,.9.8,1.7,1.7,1.7s1.7-.8,1.7-1.7v-36.2c0-.9-.8-1.7-1.7-1.7Z"/>
</svg>