<?xml version="1.0" encoding="UTF-8"?>
<svg id="Ebene_1" xmlns="http://www.w3.org/2000/svg" width="116.2" height="116.2" version="1.1" viewBox="0 0 116.2 116.2">
  <!-- Generator: Adobe Illustrator 29.1.0, SVG Export Plug-In . SVG Version: 2.1.0 Build 142)  -->
  <defs>
    <style>
      .st0 {
        fill: #c8c8c8;
      }
    </style>
  </defs>
  <path class="st0" d="M44.2,52.2c-.7-.6-1.8-.5-2.4.2-.6.7-.5,1.8.2,2.4l12.8,11.2c.3.3.7.4,1.1.4s.2,0,.3,0c.5,0,.9-.4,1.2-.9l17.8-33c.4-.8,0-1.8-.7-2.3-.8-.4-1.8-.1-2.3.7l-16.8,31.1-11.2-9.8h0Z"/>
  <path class="st0" d="M96.5,18.9c0-.9-.7-1.6-1.6-1.7-19-.7-35.8-10.4-36-10.5-.5-.3-1.2-.3-1.7,0-.2,0-17,9.8-36,10.5-.9,0-1.6.8-1.6,1.7v38.5c0,14.8,13.7,33.8,37.5,51.9.3.2.7.3,1,.3s.7,0,1-.3c23.8-18.2,37.4-37.1,37.4-51.9V18.9ZM93.2,57.4c0,13.4-13.1,31.4-35.1,48.5-22-17.1-35.1-35.1-35.1-48.5V20.5c16.9-1,31.5-8.4,35.1-10.4,3.6,2,18.2,9.4,35.1,10.4v36.9Z"/>
  <path class="st0" d="M22.8,87.5l-7.3,5.6c-.7.6-.9,1.6-.3,2.4.3.4.8.7,1.3.7s.7,0,1-.3l7.3-5.6c.7-.6.9-1.6.3-2.4-.6-.7-1.6-.9-2.4-.3h.1Z"/>
  <path class="st0" d="M10.9,56.4H1.7c-.9,0-1.7.8-1.7,1.7s.8,1.7,1.7,1.7h9.2c.9,0,1.7-.8,1.7-1.7s-.8-1.7-1.7-1.7Z"/>
  <path class="st0" d="M1.9,21.5l7.6,5.2c.3.2.6.3.9.3.5,0,1.1-.3,1.4-.7.5-.8.3-1.8-.5-2.3l-7.6-5.2c-.8-.5-1.8-.3-2.3.5s-.3,1.8.5,2.3h0Z"/>
  <path class="st0" d="M100.6,93.1l-7.3-5.6c-.7-.6-1.8-.4-2.4.3-.6.7-.4,1.8.3,2.4l7.3,5.6c.3.2.7.3,1,.3.5,0,1-.2,1.3-.7.6-.7.4-1.8-.3-2.4h0Z"/>
  <path class="st0" d="M114.5,56.4h-9.2c-.9,0-1.7.7-1.7,1.6s.8,1.7,1.7,1.7h9.2c.9,0,1.7-.7,1.7-1.6s-.8-1.7-1.7-1.7Z"/>
  <path class="st0" d="M105.7,26.9c.3,0,.7,0,.9-.3l7.6-5.2c.8-.5,1-1.6.4-2.3-.5-.8-1.6-1-2.3-.5l-7.6,5.2c-.8.5-1,1.6-.4,2.3.3.5.9.7,1.4.7h0Z"/>
</svg>