<?xml version="1.0" encoding="UTF-8"?>
<svg id="Ebene_1" xmlns="http://www.w3.org/2000/svg" width="135.7" height="135.7" version="1.1" viewBox="0 0 135.7 135.7">
  <!-- Generator: Adobe Illustrator 29.1.0, SVG Export Plug-In . SVG Version: 2.1.0 Build 142)  -->
  <defs>
    <style>
      .st0 {
        fill: #c8c8c8;
      }
    </style>
  </defs>
  <path class="st0" d="M128.8,29.5h-40.6v-5.1c0-4.4-3.3-7.9-7.3-7.9h-26.1c-4,0-7.3,3.6-7.3,7.9v5.1H6.9c-3.8,0-6.9,3.1-6.9,6.9v76c0,3.8,3.1,6.9,6.9,6.9h121.9c3.8,0,6.9-3.1,6.9-6.9V36.4c0-3.8-3.1-6.9-6.9-6.9ZM15.4,115.9H6.9c-1.9,0-3.5-1.6-3.5-3.5V36.4c0-2,1.6-3.5,3.5-3.5h8.4v83.1h.1ZM50.8,24.3c0-2.5,1.8-4.6,4-4.6h26.1c2.2,0,4,2,4,4.6v5.1h-34v-5.1h-.1ZM114.7,115.9H18.7V32.8h95.9v83.1h0ZM132.3,112.4c0,1.9-1.6,3.5-3.5,3.5h-10.8V32.8h10.8c1.9,0,3.5,1.6,3.5,3.5v76h0Z"/>
  <path class="st0" d="M40.6,84.2h17.4v17.3c0,.9.8,1.7,1.7,1.7h16.2c.9,0,1.7-.8,1.7-1.7v-17.3h17.3c.9,0,1.7-.8,1.7-1.7v-16.2c0-.9-.8-1.7-1.7-1.7h-17.3v-17.3c0-.9-.8-1.7-1.7-1.7h-16.2c-.9,0-1.7.8-1.7,1.7v17.3h-17.3c-.9,0-1.7.8-1.7,1.7v16.2c0,.9.8,1.7,1.7,1.7h0ZM42.2,67.9h17.4c.9,0,1.7-.8,1.7-1.7v-17.3h12.9v17.3c0,.9.8,1.7,1.7,1.7h17.3v12.9h-17.3c-.9,0-1.7.8-1.7,1.7v17.3h-12.9v-17.3c0-.9-.8-1.7-1.7-1.7h-17.3v-12.9h0Z"/>
</svg>