<?xml version="1.0" encoding="UTF-8"?>
<svg id="Ebene_1" xmlns="http://www.w3.org/2000/svg" width="116.7" height="116.7" version="1.1" viewBox="0 0 116.7 116.7">
  <!-- Generator: Adobe Illustrator 29.1.0, SVG Export Plug-In . SVG Version: 2.1.0 Build 142)  -->
  <defs>
    <style>
      .st0 {
        fill: #c8c8c8;
      }
    </style>
  </defs>
  <path class="st0" d="M96.8,23.7c-5.2-4.1-11.7-5.4-18.4-3.6-.9.2-1.4,1.2-1.2,2.1.2.9,1.2,1.4,2.1,1.2,5.6-1.5,11.1-.5,15.4,3,4.3,3.4,6.7,8.5,6.5,13.8,0,.9.7,1.7,1.6,1.7h0c.9,0,1.7-.7,1.7-1.6.2-6.3-2.7-12.5-7.8-16.5h.1Z"/>
  <path class="st0" d="M107.2,18.7c-20.3-20.4-41.7-6.7-46.5-3.1-2.4-1.4-9.1-4.8-19.8-7-.6-.1-1.2,0-1.6.5-.4.4-.5,1-.4,1.6l4,14.4-10,4.6c-.8.3-1.2,1.2-.9,2l2.4,8.6-9.6,4.2c-.8.4-1.2,1.3-.9,2.2l3.4,8.6-12.2,6.7c-.5.3-.8.7-.9,1.2,0,.5.1,1.1.5,1.4l45,44.9c.3.3.8.5,1.2.5s.8-.2,1.2-.5l41.4-40.6c.5-.5,13.1-13.2,13.2-28.9,0-7.9-3.2-15-9.4-21.3h0ZM101.1,66.5l-40.2,39.4L18.7,63.7l11.5-6.3c.7-.4,1.1-1.3.8-2.1l-3.4-8.4,9.5-4.2c.8-.3,1.2-1.2.9-2l-2.4-8.6,10-4.6c.8-.3,1.1-1.2.9-2l-3.6-13.1c11.1,2.6,16.9,6.5,17,6.5.6.4,1.5.4,2-.1.9-.8,22.1-18.6,42.9,2.2,8.6,8.7,10.7,18.8,6.1,30.3-3.5,8.8-9.8,15.1-9.8,15.1h0Z"/>
  <path class="st0" d="M18.3,48.8l-3.3-8,8.4-3.7c.8-.3,1.2-1.3.9-2.1l-2.8-8.2,10.9-5.1c.8-.3,1.2-1.2.9-2l-3.5-11.7c-.2-.7-.9-1.2-1.6-1.2s-16.6.3-25.1,16.6c-8.6,16.3,3.1,31.9,3.6,32.5.3.4.8.7,1.3.7s.6,0,.9-.2l8.7-5.4c.7-.4,1-1.3.7-2.1h0ZM8.6,52.6c-2.4-3.8-8.7-15.8-2.4-27.7,6.4-12.1,17.2-14.3,20.9-14.7l2.7,9.1-11,5.1c-.8.4-1.2,1.3-.9,2.1l2.8,8.2-8.5,3.8c-.8.4-1.2,1.3-.9,2.2l3.4,8.2-6.1,3.8h0Z"/>
</svg>