<?xml version="1.0" encoding="UTF-8"?>
<svg id="Ebene_1" xmlns="http://www.w3.org/2000/svg" width="115.7" height="115.7" version="1.1" viewBox="0 0 115.7 115.7">
  <!-- Generator: Adobe Illustrator 29.1.0, SVG Export Plug-In . SVG Version: 2.1.0 Build 142)  -->
  <defs>
    <style>
      .st0 {
        fill: #ef2265;
      }
    </style>
  </defs>
  <path class="st0" d="M114.3,24.4L48.3,7.6c-.3-.2-.6-.3-1-.3s-.2,0-.2,0c-.4,0-.8,0-1.1.2L.8,34.8c-.5.3-.8.8-.8,1.4v27.8h0v37.4c0,.8.6,1.5,1.4,1.7l45.7,7.4h.4l66.6-4.4c.9,0,1.6-.8,1.6-1.7V26.1c0-.8-.5-1.4-1.3-1.6h0ZM3.3,52.8l42.3-22.2v13.6L3.3,61.5v-8.7h0ZM49,30l63.2,15v10.9l-63.2-11.9s0-14,0-14Z"/>
</svg>