<?xml version="1.0" encoding="UTF-8"?>
<svg id="Ebene_1" xmlns="http://www.w3.org/2000/svg" width="115.6" height="115.6" version="1.1" viewBox="0 0 115.6 115.6">
  <!-- Generator: Adobe Illustrator 29.1.0, SVG Export Plug-In . SVG Version: 2.1.0 Build 142)  -->
  <defs>
    <style>
      .st0 {
        fill: #bcbcbc;
      }
    </style>
  </defs>
  <path class="st0" d="M114.3,23.4L48.3,6.5c-.3-.2-.6-.3-1-.3s-.2,0-.2,0c-.4,0-.8,0-1.1.2L.8,33.7c-.5.3-.8.8-.8,1.4v27.8h0v37.4c0,.8.6,1.5,1.4,1.7l45.7,7.4h.4l66.6-4.4c.9,0,1.6-.8,1.6-1.7V25c0-.8-.5-1.4-1.3-1.6h0ZM3.4,51.8l42.3-22.2v13.6L3.4,60.4v-8.7h0ZM49,28.9l63.2,15v10.9l-63.2-11.9v-14h0ZM112.2,40.4l-63.2-15v-15.2l63.2,16.1v14.1ZM45.6,10.6v15.1L3.4,48v-11.8L45.6,10.6ZM3.4,64.1l42.3-17.3v58.9l-42.3-6.8v-34.8h0ZM49,105.9v-59.6l63.2,11.9v43.5s-63.2,4.2-63.2,4.2Z"/>
</svg>