<?xml version="1.0" encoding="UTF-8"?>
<svg id="Ebene_1" data-name="Ebene 1" xmlns="http://www.w3.org/2000/svg" viewBox="0 0 141.73 141.73">
  <defs>
    <style>
      .cls-1 {
        fill: #3f66da;
        stroke-width: 0px;
      }
    </style>
  </defs>
  <path class="cls-1" d="M119.76,31.2c-20.33-20.38-41.69-6.68-46.47-3.14-2.45-1.42-9.11-4.82-19.82-6.97-.58-.11-1.16.08-1.56.5-.4.43-.55,1.03-.39,1.59l3.95,14.36-10.05,4.58c-.75.34-1.15,1.19-.92,1.98l2.4,8.61-9.62,4.25c-.83.37-1.22,1.32-.88,2.16l3.41,8.55-12.16,6.7c-.46.26-.78.71-.86,1.24-.07.53.1,1.05.48,1.43l44.96,44.91c.33.33.76.49,1.19.49s.85-.16,1.18-.48l41.45-40.55c.54-.53,13.14-13.23,13.18-28.89.02-7.86-3.15-15.04-9.43-21.34ZM117.05,52.79c-.03.91-.78,1.62-1.68,1.62-.02,0-.04,0-.06,0-.93-.03-1.66-.81-1.62-1.74.19-5.26-2.24-10.41-6.5-13.79-4.32-3.43-9.8-4.49-15.42-2.97-.9.24-1.82-.29-2.06-1.19-.24-.9.29-1.82,1.19-2.06,6.68-1.8,13.22-.53,18.39,3.59,5.09,4.04,7.99,10.23,7.77,16.55Z"/>
  <path class="cls-1" d="M30.85,61.33l-3.3-8.02,8.43-3.72c.8-.35,1.2-1.26.91-2.08l-2.79-8.21,10.94-5.07c.76-.35,1.15-1.21.9-2.01l-3.52-11.74c-.21-.71-.87-1.2-1.61-1.2h-.01c-.67,0-16.56.33-25.12,16.57-8.6,16.31,3.09,31.89,3.59,32.54.33.43.83.66,1.34.66.3,0,.61-.08.89-.25l8.68-5.4c.7-.43.98-1.31.67-2.07Z"/>
</svg>