<?xml version="1.0" encoding="UTF-8"?>
<svg id="Ebene_1" data-name="Ebene 1" xmlns="http://www.w3.org/2000/svg" viewBox="0 0 141.73 141.73">
  <defs>
    <style>
      .cls-1 {
        fill: #3f66da;
        stroke-width: 0px;
      }
    </style>
  </defs>
  <path class="cls-1" d="M68.87,100.57c-.91.17-1.52,1.05-1.35,1.96l1.54,8.22c.15.81.86,1.37,1.65,1.37.1,0,.21,0,.31-.03.91-.17,1.52-1.05,1.35-1.96l-1.54-8.22c-.17-.91-1.05-1.51-1.97-1.35Z"/>
  <path class="cls-1" d="M84.07,92.38c-.63.69-.58,1.75.11,2.38l6.24,5.68c.32.29.73.44,1.13.44.46,0,.91-.19,1.25-.55.63-.69.58-1.75-.11-2.38l-6.24-5.68c-.69-.63-1.75-.58-2.38.11Z"/>
  <path class="cls-1" d="M49.49,99.24l-3.76,7.57c-.41.83-.08,1.84.76,2.26.24.12.5.18.75.18.62,0,1.21-.34,1.51-.93l3.76-7.57c.41-.83.08-1.84-.76-2.26-.83-.42-1.84-.08-2.26.76Z"/>
  <path class="cls-1" d="M125.26,62.18c-.42-.61-1.19-.87-1.9-.64-7.5,2.41-15.56-.33-20.06-6.8-4.5-6.48-4.25-14.99.63-21.18.46-.58.48-1.39.06-2-.42-.61-1.2-.87-1.9-.64-1.99.64-3.88,1.57-5.62,2.78-9.59,6.66-11.98,19.89-5.31,29.48,4.11,5.92,10.71,9.09,17.42,9.09,4.17,0,8.38-1.22,12.05-3.78,1.73-1.2,3.27-2.65,4.56-4.29.46-.58.48-1.39.06-2Z"/>
  <path class="cls-1" d="M110.53,80.82c-.92-.15-1.79.46-1.95,1.37-.44,2.53-1.09,4.99-1.93,7.36-.22.63-.46,1.26-.71,1.88-.02.06-.05.12-.08.18-.27.65-.54,1.29-.84,1.91-.02.05-.05.1-.07.15-.29.62-.6,1.24-.92,1.84-.04.07-.07.14-.11.21-.31.57-.62,1.13-.95,1.69-.06.11-.13.21-.19.32-.3.5-.62,1-.94,1.49-.1.15-.2.31-.31.46-.29.43-.58.84-.89,1.26-.15.21-.31.42-.46.63-.26.34-.53.68-.79,1.02-.22.27-.43.53-.65.8-.22.26-.44.52-.67.78-.28.32-.57.64-.87.96-.18.19-.35.38-.53.56-.36.37-.72.73-1.08,1.08-.13.13-.27.25-.4.38-.42.4-.85.78-1.29,1.17-.1.09-.2.17-.3.26-.47.4-.94.79-1.43,1.17-.09.07-.18.14-.27.21-.48.37-.97.73-1.47,1.09-.13.09-.25.18-.38.27-.43.3-.87.59-1.31.88-.22.14-.45.29-.67.43-.32.2-.65.39-.97.58-.37.22-.73.43-1.11.63-.17.09-.34.18-.51.27-6.21,3.31-13.18,5.17-20.35,5.29-.15,0-.3,0-.45,0-.54,0-1.08,0-1.61-.01-.37-.01-.73-.03-1.1-.05-.33-.02-.66-.03-1-.06-.51-.04-1.02-.09-1.53-.15-.2-.02-.41-.04-.61-.07-.56-.07-1.12-.16-1.68-.25-.18-.03-.35-.05-.53-.09-.5-.09-.99-.19-1.49-.29-.26-.06-.53-.11-.79-.17-.37-.08-.73-.18-1.1-.27-.41-.1-.81-.21-1.22-.32-.23-.06-.45-.14-.67-.2-.54-.16-1.08-.33-1.62-.52-.12-.04-.24-.09-.36-.13-.63-.22-1.24-.45-1.85-.7-.06-.03-.13-.05-.19-.08-.65-.27-1.28-.54-1.91-.83-.05-.02-.1-.05-.15-.07-.63-.29-1.24-.6-1.85-.92-.06-.03-.13-.07-.19-.1-.58-.31-1.15-.63-1.71-.97-.1-.06-.19-.11-.29-.17-.52-.31-1.02-.63-1.52-.96-.14-.09-.28-.19-.42-.28-.44-.3-.87-.6-1.3-.92-.19-.14-.39-.28-.58-.43-.36-.27-.72-.55-1.07-.83-.25-.2-.5-.4-.74-.61-.28-.24-.56-.48-.83-.72-.3-.27-.6-.54-.9-.82-.21-.19-.41-.39-.62-.59-.35-.34-.69-.68-1.03-1.03-.15-.15-.29-.31-.44-.46-.38-.4-.75-.81-1.11-1.22-.11-.12-.21-.24-.32-.37-.38-.44-.75-.9-1.12-1.36-.09-.11-.18-.23-.27-.35-.35-.46-.7-.92-1.03-1.39-.11-.15-.22-.3-.32-.45-.29-.41-.56-.82-.83-1.24-.16-.25-.32-.49-.48-.74-.19-.3-.36-.6-.54-.9-.23-.39-.46-.78-.67-1.17-.08-.15-.16-.3-.24-.44-3.32-6.22-5.19-13.21-5.31-20.4,0-.12,0-.25,0-.37,0-.56,0-1.13.02-1.7.01-.33.03-.67.05-1,.02-.36.04-.73.06-1.09.04-.48.09-.95.14-1.43.03-.24.05-.48.08-.72.07-.52.15-1.04.23-1.56.04-.22.07-.43.1-.65.08-.47.18-.93.28-1.39.06-.29.12-.59.19-.88.08-.35.17-.69.26-1.03.11-.43.22-.85.34-1.28.06-.21.13-.42.19-.63.17-.55.34-1.11.53-1.66.04-.11.08-.22.12-.33.22-.63.46-1.26.71-1.88.02-.06.05-.12.07-.18.27-.65.55-1.29.84-1.92.02-.05.04-.09.07-.14.3-.63.6-1.25.93-1.86.03-.06.07-.12.1-.19.31-.58.63-1.15.97-1.72.06-.09.11-.19.17-.28.31-.52.63-1.02.96-1.53.09-.14.19-.28.28-.42.3-.44.6-.87.92-1.3.14-.19.29-.39.43-.58.27-.36.55-.72.83-1.07.2-.25.4-.5.61-.74.24-.28.48-.56.72-.84.27-.3.54-.6.81-.89.2-.21.4-.42.6-.63.33-.34.67-.68,1.02-1.02.16-.15.32-.3.47-.45.39-.37.8-.73,1.2-1.09.13-.11.26-.22.39-.33.44-.37.88-.74,1.34-1.1.12-.1.25-.2.37-.29.45-.34.9-.68,1.36-1.01.16-.12.32-.23.49-.35.4-.28.8-.54,1.2-.8.26-.17.52-.34.79-.5.28-.18.57-.34.85-.51.41-.24.81-.48,1.22-.7.13-.07.26-.14.39-.21,6.24-3.34,13.24-5.21,20.44-5.33.11,0,.22,0,.33,0,.58,0,1.16,0,1.74.02.33.01.66.03.99.05.37.02.73.04,1.1.06.48.04.97.09,1.45.14.23.02.46.05.68.07.54.07,1.08.15,1.62.24,1.76.29,3.52.67,5.26,1.18l-8.07,2.52c-.89.28-1.38,1.22-1.11,2.11.22.72.89,1.18,1.61,1.18.17,0,.33-.02.5-.08l12.45-3.88c.5-.16.9-.54,1.08-1.03.18-.49.12-1.04-.16-1.48l-7.09-11.09c-.5-.79-1.54-1.02-2.33-.51-.78.5-1.01,1.54-.51,2.33l4.23,6.62c-1.6-.45-3.2-.81-4.81-1.09-.02,0-.03-.01-.05-.01-.16-.03-.33-.05-.49-.07-.58-.09-1.15-.18-1.73-.26-.22-.03-.44-.05-.67-.07-.55-.06-1.1-.12-1.65-.16-.33-.03-.67-.04-1-.06-.42-.02-.84-.05-1.26-.06-.53-.02-1.06-.02-1.59-.01-.21,0-.42,0-.64,0-6.97.11-13.8,1.74-20.1,4.8,0,0-.01,0-.02.01-.58.28-1.16.58-1.73.88-.18.1-.36.19-.54.29-.41.23-.81.46-1.21.7-.34.2-.67.4-1.01.6-.26.16-.52.33-.77.49-.46.29-.91.6-1.35.91-.07.05-.15.1-.22.15-.09.06-.17.13-.25.19-.51.36-1.01.74-1.51,1.12-.12.09-.24.19-.36.28-.5.39-.99.8-1.47,1.21-.13.11-.26.22-.39.33-.45.39-.89.79-1.32,1.2-.17.16-.33.31-.49.47-.38.36-.74.73-1.11,1.11-.21.22-.42.44-.63.66-.3.32-.59.64-.88.97-.26.3-.52.59-.77.89-.22.26-.44.53-.65.8-.31.38-.61.76-.9,1.15-.15.2-.31.41-.46.62-.34.46-.67.93-.99,1.41-.1.15-.2.29-.3.44-.36.54-.71,1.09-1.04,1.65-.06.1-.12.19-.17.29-.36.61-.71,1.24-1.05,1.86-.03.06-.06.12-.09.18-.35.67-.69,1.34-1.01,2.02-.02.04-.04.09-.06.13-.32.69-.63,1.39-.92,2.1-.02.05-.04.11-.07.16-.27.68-.53,1.36-.78,2.05-.02.07-.05.13-.08.2-.01.04-.02.08-.04.12-.21.6-.4,1.2-.58,1.81-.07.22-.14.44-.2.66-.13.46-.25.93-.37,1.4-.09.36-.19.72-.27,1.09-.07.32-.14.64-.21.97-.1.5-.21.99-.29,1.49-.01.06-.02.12-.03.18-.03.18-.05.36-.08.53-.09.56-.18,1.11-.25,1.67-.03.27-.06.53-.09.8-.05.5-.11,1-.15,1.5-.03.41-.05.82-.07,1.22-.02.34-.04.69-.05,1.03-.02.63-.02,1.26-.02,1.88,0,.11,0,.23,0,.34.11,7.68,2.07,15.2,5.75,22.01.06.12.13.24.19.36.25.46.52.92.79,1.37.17.29.34.57.51.85.19.31.38.61.58.91.27.41.54.82.82,1.22.06.09.12.19.19.28.08.11.16.21.23.32.34.47.68.93,1.03,1.39.12.16.24.31.37.47.37.46.74.92,1.13,1.37.14.16.27.32.41.48.37.42.74.83,1.12,1.23.18.19.36.38.54.57.34.35.69.7,1.04,1.04.24.23.48.47.73.69.3.28.6.55.91.82.31.28.63.55.95.82.25.21.5.41.75.61.39.32.79.63,1.2.93.19.14.38.29.57.43.48.35.96.69,1.45,1.02.14.09.27.18.41.27.55.36,1.11.72,1.68,1.06.09.05.18.11.27.16.62.37,1.24.72,1.88,1.06.06.03.11.06.17.09.67.35,1.34.69,2.02,1.01.04.02.08.04.13.06.69.32,1.38.62,2.09.91.06.02.12.05.18.07.67.27,1.35.53,2.03.77.07.03.14.06.22.08.05.02.1.03.15.05.46.16.92.31,1.39.45.29.09.59.18.88.27.35.1.7.2,1.06.29.47.13.94.24,1.41.35.21.05.42.1.64.15,2.76.61,5.53.97,8.28,1.09.72.03,1.44.05,2.16.05,8.99,0,17.77-2.53,25.5-7.38.2-.12.4-.25.6-.37.11-.07.23-.15.34-.23,1.07-.7,2.11-1.45,3.13-2.24.06-.04.11-.09.17-.13.57-.45,1.14-.91,1.69-1.39.03-.03.07-.06.1-.08,1.14-.98,2.23-2.02,3.28-3.11.14-.14.27-.29.4-.43.34-.37.68-.74,1.01-1.11.19-.22.38-.43.57-.66.25-.3.5-.61.75-.91.22-.27.44-.54.65-.81.13-.17.25-.34.38-.51.59-.79,1.16-1.59,1.69-2.41.05-.08.11-.16.16-.23.3-.46.59-.93.87-1.4.06-.1.12-.19.17-.29.29-.49.57-.99.85-1.49.02-.04.04-.08.07-.13,1.16-2.16,2.16-4.41,2.99-6.73.03-.09.07-.18.1-.27,0-.01,0-.02,0-.04.86-2.47,1.53-5.03,1.98-7.66.16-.92-.46-1.79-1.37-1.95Z"/>
  <path class="cls-1" d="M58.94,51.84c-6.05,1.3-11.24,4.82-14.63,9.91-3.39,5.1-4.56,11.16-3.29,17.07,2.27,10.54,11.8,17.74,22.42,17.74,1.65,0,3.33-.17,5.01-.54,12.5-2.7,20.54-14.8,17.92-26.98-2.63-12.18-14.94-19.89-27.44-17.21Z"/>
  <path class="cls-1" d="M57.86,47.69c.12,0,.24-.01.36-.04.91-.2,1.49-1.09,1.29-2l-1.76-8.17c-.2-.91-1.09-1.49-2-1.29-.91.2-1.49,1.09-1.29,2l1.76,8.17c.17.79.87,1.33,1.64,1.33Z"/>
  <path class="cls-1" d="M75.43,49.76c.62,0,1.21-.34,1.51-.93l3.76-7.57c.41-.83.08-1.84-.76-2.26-.83-.42-1.84-.08-2.26.76l-3.76,7.57c-.41.83-.08,1.84.76,2.26.24.12.5.18.75.18Z"/>
  <path class="cls-1" d="M30.23,93.34c.26,0,.53-.06.78-.19l7.6-3.98c.82-.43,1.14-1.45.71-2.27-.43-.82-1.45-1.14-2.27-.71l-7.6,3.98c-.82.43-1.14,1.45-.71,2.27.3.57.89.9,1.49.9Z"/>
  <path class="cls-1" d="M34.78,71.75c.83,0,1.55-.61,1.67-1.46.13-.92-.52-1.77-1.44-1.9l-8.49-1.16c-.92-.13-1.77.52-1.9,1.44-.13.92.52,1.77,1.44,1.9l8.49,1.16c.08.01.15.02.23.02Z"/>
  <path class="cls-1" d="M43.04,55.69c.44,0,.88-.17,1.21-.52.64-.67.62-1.74-.05-2.38l-6.08-5.84c-.67-.64-1.74-.62-2.38.05s-.62,1.74.05,2.38l6.08,5.84c.33.31.75.47,1.17.47Z"/>
  <path class="cls-1" d="M101.42,81.06c.08.01.15.02.23.02.83,0,1.55-.61,1.67-1.46.13-.92-.52-1.77-1.44-1.9l-8.49-1.16c-.92-.13-1.77.52-1.9,1.44-.13.92.52,1.77,1.44,1.9l8.49,1.16Z"/>
</svg>