<?xml version="1.0" encoding="UTF-8"?>
<svg id="Ebene_1" data-name="Ebene 1" xmlns="http://www.w3.org/2000/svg" viewBox="0 0 141.73 141.73">
  <defs>
    <style>
      .cls-1 {
        fill: #3f66da;
        stroke-width: 0px;
      }
    </style>
  </defs>
  <path class="cls-1" d="M127.39,36.44L61.38,19.6c-.27-.19-.61-.31-.97-.31-.08,0-.16.01-.23.02-.38-.05-.76.02-1.09.22L13.89,46.79c-.51.3-.81.85-.81,1.44v27.76h0v37.38c0,.83.6,1.53,1.42,1.66l45.66,7.39c.09.01.18.02.27.02.04,0,.07,0,.11,0l66.56-4.39c.88-.06,1.57-.79,1.57-1.68V38.07c0-.77-.52-1.44-1.27-1.63ZM16.44,64.84l42.29-22.23v13.58l-42.29,17.3v-8.66ZM62.1,41.96l63.19,14.99v10.89l-63.19-11.9v-13.98Z"/>
</svg>