<?xml version="1.0" encoding="UTF-8"?>
<svg id="Ebene_1" xmlns="http://www.w3.org/2000/svg" width="141.7" height="141.7" version="1.1" viewBox="0 0 141.7 141.7">
  <!-- Generator: Adobe Illustrator 29.1.0, SVG Export Plug-In . SVG Version: 2.1.0 Build 142)  -->
  <defs>
    <style>
      .st0 {
        fill: #ef2265;
      }
    </style>
  </defs>
  <path class="st0" d="M127.4,36.4L61.4,19.6c-.3-.2-.6-.3-1-.3s-.2,0-.2,0c-.4,0-.8,0-1.1.2L13.9,46.8c-.5.3-.8.8-.8,1.4v27.8h0v37.4c0,.8.6,1.5,1.4,1.7l45.7,7.4c0,0,.2,0,.3,0h.1l66.6-4.4c.9,0,1.6-.8,1.6-1.7V38.1c0-.8-.5-1.4-1.3-1.6h0ZM16.4,64.8l42.3-22.2v13.6l-42.3,17.3v-8.7h0ZM62.1,42l63.2,15v10.9l-63.2-11.9s0-14,0-14Z"/>
</svg>