<?xml version="1.0" encoding="UTF-8"?>
<svg id="Ebene_1" data-name="Ebene 1" xmlns="http://www.w3.org/2000/svg" viewBox="0 0 141.73 141.73">
  <defs>
    <style>
      .cls-1 {
        fill: #3f66da;
        stroke-width: 0px;
      }
    </style>
  </defs>
  <path class="cls-1" d="M135.25,79.63c-3.74-3.75-10.62-5.52-20.44-5.24-.71.02-1.32.05-1.81.08-7.07-21.3-31.58-39.7-53.24-39.7-20.03,0-28.58,4.85-28.58,16.23,0,7.98,4.72,15.51,7.54,20.02.42.68.8,1.28,1.1,1.79,1.8,3.05,2.45,5.33,1.88,6.58-.44.97-1.84,1.69-4.15,2.13-3.95.75-11.41.81-11.48.81-.29,0-.56.09-.81.23h-.05c-2.91-1.93-7.71-4.79-10.22-4.71-4.87.23-11.35,21.48-11.54,22.58-.72,4.12,1.15,5.6,2.34,6.12.6.26,1.26.38,1.93.38,2.81,0,6.05-2.07,7.92-4.52.27-.36.53-.73.79-1.12,1.52-2.26,2.85-4.22,10.31-2.55,1.21,4.13,4.58,6.25,10.07,6.25h26.63c6.79,0,9.61-5.59,11.24-14.31,6.22,6.97,12.45,13.69,12.53,13.77.32.34.77.54,1.23.54h24.59c10.61,0,17.46-.55,21.35-4.29,0,0,0,0,0,0,0,0,0,0,0,0,2.6-2.5,3.87-6.42,4.05-12.56.1-3.43-.97-6.3-3.19-8.52ZM26.05,95.18l-1.34-8.9,3.69,1.89,1.25,8.2-3.59-1.19ZM72.68,83.43l-.88,4.02c-.85-.97-1.68-1.93-2.46-2.86-3.79-4.48-6.7-8.25-7.45-9.4-3.82-5.84,5.91-15.47,7.9-17.34.68-.64,1.74-.6,2.38.07.64.68.61,1.74-.07,2.38-3.97,3.74-9.07,10.48-7.39,13.05.7,1.07,3.61,4.83,7.35,9.24.22.26.45.52.67.79l-.05.05ZM113.02,101.63h-2.86c-1.27-2.81-5.88-3.65-10.93-4.28-2.4-.3-4.13-.51-5.18-1.18-.24-.15-.51-.39-.82-.7-1.48,1.21-2.46,2.87-2.99,6.15h-1.08c-.42-.45-1.09-1.18-1.92-2.09.7-2.97,1.92-5.05,3.9-6.68-3.34-4.66-7.84-12.67-9.48-15.63-.45-.81-.16-1.84.66-2.29.82-.45,1.84-.15,2.29.66,3.52,6.37,7.85,13.54,10.09,16.46.07.1.14.17.21.26.4.5.73.87.95,1.01.33.2,1.48.38,2.63.53-.2-6.26,1.25-11.19,4.36-14.64,2.26-2.5,4.89-3.67,6.78-4.21.2.58.39,1.15.56,1.73.23.78.6,1.43.6,1.43-3.04.79-9.53,3.92-8.93,16.13,4.78.7,10.78,2.16,11.85,7.32-.23,0-.45,0-.68,0ZM125.08,101.08c-1.15.17-2.43.28-3.85.37,5.81-11.6-2.02-21.76-3.67-23.71,1.54.02,2.98.1,4.33.24,2.86,4.36,7.12,13.2,3.19,23.1Z"/>
</svg>