<?xml version="1.0" encoding="UTF-8"?>
<svg id="Ebene_1" xmlns="http://www.w3.org/2000/svg" width="141.7" height="141.7" version="1.1" viewBox="0 0 141.7 141.7">
  <!-- Generator: Adobe Illustrator 29.1.0, SVG Export Plug-In . SVG Version: 2.1.0 Build 142)  -->
  <defs>
    <style>
      .st0 {
        fill: #de2187;
      }
    </style>
  </defs>
  <path class="st0" d="M119.8,31.2c-20.3-20.4-41.7-6.7-46.5-3.1-2.4-1.4-9.1-4.8-19.8-7-.6-.1-1.2,0-1.6.5-.4.4-.5,1-.4,1.6l4,14.4-10,4.6c-.8.3-1.2,1.2-.9,2l2.4,8.6-9.6,4.2c-.8.4-1.2,1.3-.9,2.2l3.4,8.6-12.2,6.7c-.5.3-.8.7-.9,1.2,0,.5.1,1.1.5,1.4l45,44.9c.3.3.8.5,1.2.5s.8-.2,1.2-.5l41.4-40.6c.5-.5,13.1-13.2,13.2-28.9,0-7.9-3.2-15-9.4-21.3h0ZM117.1,52.8c0,.9-.8,1.6-1.7,1.6h0c-.9,0-1.7-.8-1.6-1.7.2-5.3-2.2-10.4-6.5-13.8-4.3-3.4-9.8-4.5-15.4-3-.9.2-1.8-.3-2.1-1.2-.2-.9.3-1.8,1.2-2.1,6.7-1.8,13.2-.5,18.4,3.6,5.1,4,8,10.2,7.8,16.5h0Z"/>
  <path class="st0" d="M30.9,61.3l-3.3-8,8.4-3.7c.8-.3,1.2-1.3.9-2.1l-2.8-8.2,10.9-5.1c.8-.3,1.2-1.2.9-2l-3.5-11.7c-.2-.7-.9-1.2-1.6-1.2h0c-.7,0-16.6.3-25.1,16.6-8.6,16.3,3.1,31.9,3.6,32.5.3.4.8.7,1.3.7s.6,0,.9-.2l8.7-5.4c.7-.4,1-1.3.7-2.1Z"/>
</svg>