<?xml version="1.0" encoding="UTF-8"?>
<svg id="Ebene_1" data-name="Ebene 1" xmlns="http://www.w3.org/2000/svg" viewBox="0 0 141.73 141.73">
  <defs>
    <style>
      .cls-1 {
        fill: #c8c8c8;
        stroke-width: 0px;
      }
    </style>
  </defs>
  <path class="cls-1" d="M109.28,36.24c-5.18-4.11-11.71-5.39-18.4-3.59-.9.24-1.43,1.17-1.19,2.06.24.9,1.16,1.43,2.06,1.19,5.63-1.52,11.1-.46,15.42,2.97,4.26,3.38,6.68,8.54,6.5,13.79-.03.93.69,1.71,1.62,1.74.02,0,.04,0,.06,0,.9,0,1.65-.72,1.68-1.62.22-6.32-2.68-12.5-7.77-16.55Z"/>
  <path class="cls-1" d="M119.76,31.2c-20.33-20.38-41.69-6.68-46.47-3.14-2.45-1.42-9.11-4.82-19.82-6.97-.58-.12-1.16.08-1.56.5-.4.43-.55,1.03-.39,1.59l3.95,14.36-10.05,4.58c-.75.34-1.15,1.19-.92,1.98l2.4,8.61-9.62,4.25c-.83.37-1.22,1.32-.88,2.16l3.41,8.55-12.16,6.7c-.46.26-.78.71-.86,1.24-.07.52.1,1.05.48,1.43l44.96,44.91c.33.33.76.49,1.19.49s.85-.16,1.18-.48l41.45-40.55c.54-.53,13.14-13.23,13.18-28.89.02-7.86-3.15-15.04-9.43-21.34ZM113.65,79.02l-40.25,39.38-42.19-42.15,11.5-6.33c.74-.41,1.07-1.31.75-2.1l-3.36-8.42,9.47-4.18c.76-.34,1.17-1.19.94-1.99l-2.4-8.63,10.04-4.57c.75-.34,1.14-1.18.93-1.98l-3.59-13.06c11.06,2.61,16.9,6.48,16.96,6.52.63.43,1.47.38,2.04-.12.89-.77,22.11-18.62,42.88,2.2,8.62,8.65,10.67,18.85,6.08,30.33-3.51,8.78-9.76,15.07-9.81,15.12Z"/>
  <path class="cls-1" d="M30.85,61.33l-3.3-8.02,8.43-3.72c.8-.35,1.2-1.26.91-2.08l-2.79-8.21,10.94-5.07c.76-.35,1.15-1.21.9-2.01l-3.52-11.74c-.21-.72-.91-1.19-1.63-1.2-.67,0-16.56.33-25.12,16.57-8.6,16.31,3.09,31.89,3.59,32.54.33.43.83.66,1.34.66.3,0,.61-.08.89-.25l8.68-5.4c.7-.43.98-1.31.67-2.07ZM21.1,65.08c-2.41-3.83-8.72-15.75-2.44-27.66,6.38-12.1,17.25-14.29,20.93-14.69l2.71,9.06-10.99,5.09c-.78.36-1.16,1.26-.89,2.07l2.78,8.18-8.52,3.76c-.84.37-1.23,1.34-.88,2.18l3.38,8.22-6.09,3.79Z"/>
</svg>