<?xml version="1.0" encoding="UTF-8"?>
<svg id="Ebene_1" data-name="Ebene 1" xmlns="http://www.w3.org/2000/svg" viewBox="0 0 141.73 141.73">
  <defs>
    <style>
      .cls-1 {
        fill: #3f66da;
        stroke-width: 0px;
      }
    </style>
  </defs>
  <path class="cls-1" d="M134.52,120.4L97.68,20.15c-.27-.74-1.02-1.18-1.78-1.09h-50.09c-.75-.08-1.5.35-1.77,1.09L7.21,120.4c-.32.87.13,1.84,1,2.16.11.04.22.04.34.06l-.02.06h124.79l-.03-.08c.08-.02.16-.01.24-.04.87-.32,1.32-1.29,1-2.16ZM72.31,112.69c0,.93-.75,1.68-1.68,1.68s-1.68-.75-1.68-1.68v-31.92c0-.93.75-1.68,1.68-1.68s1.68.75,1.68,1.68v31.92ZM72.31,68.25c0,.93-.75,1.68-1.68,1.68s-1.68-.75-1.68-1.68v-18.44c0-.93.75-1.68,1.68-1.68s1.68.75,1.68,1.68v18.44ZM72.31,37.29c0,.93-.75,1.68-1.68,1.68s-1.68-.75-1.68-1.68v-8.07c0-.93.75-1.68,1.68-1.68s1.68.75,1.68,1.68v8.07Z"/>
</svg>